<?xml version="1.0" encoding="UTF-8"?>
<!DOCTYPE svg PUBLIC "-//W3C//DTD SVG 1.1//EN" "http://www.w3.org/Graphics/SVG/1.1/DTD/svg11.dtd">
<!-- Creator: CorelDRAW X7 -->
<svg xmlns="http://www.w3.org/2000/svg" xml:space="preserve" width="9.2848mm" height="3.51mm" version="1.1" style="shape-rendering:geometricPrecision; text-rendering:geometricPrecision; image-rendering:optimizeQuality; fill-rule:evenodd; clip-rule:evenodd"
viewBox="0 0 11674 4413"
 xmlns:xlink="http://www.w3.org/1999/xlink">
 <defs>
  <style type="text/css">
   <![CDATA[
    .fil0 {fill:#2B2A29;fill-rule:nonzero}
   ]]>
  </style>
 </defs>
 <g id="Layer_x0020_1">
  <metadata id="CorelCorpID_0Corel-Layer"/>
  <g id="_844427328">
   <path class="fil0" d="M0 198l0 543 154 0 0 -228 167 0 0 228 155 0 0 -543 -155 0 0 203 -167 0 0 -203 -154 0zm738 167c6,-30 23,-47 37,-55 22,-14 48,-16 69,-16 16,0 55,1 75,24 14,17 15,49 15,64l0 12 -49 2c-43,2 -137,10 -195,35 -90,38 -113,103 -113,158 0,48 21,93 54,121 34,29 84,41 132,41 110,0 158,-60 178,-97 1,37 4,65 8,87l150 0c-9,-33 -15,-74 -15,-117l0 -210c0,-40 2,-87 -19,-131 -39,-84 -127,-96 -215,-96 -68,0 -123,10 -164,34 -28,17 -75,55 -91,128l143 16zm196 115l0 29c0,61 -24,93 -28,97 -20,25 -57,39 -88,39 -20,0 -42,-5 -57,-17 -11,-9 -22,-25 -22,-48 0,-22 8,-38 16,-49 29,-37 81,-43 133,-47l46 -4zm524 -282l0 543 318 0c36,0 83,-5 123,-34 33,-26 56,-69 56,-120 0,-53 -27,-83 -38,-93 -24,-25 -61,-37 -93,-40l0 -2c53,-9 104,-49 104,-123 0,-52 -26,-85 -52,-103 -33,-24 -80,-28 -118,-28l-300 0zm154 90l83 0c17,0 38,0 56,14 13,11 21,28 21,47 0,21 -7,38 -19,50 -19,17 -42,18 -61,18l-80 0 0 -129zm0 220l96 0c27,0 47,7 59,17 16,11 26,32 26,54 0,18 -7,39 -20,51 -10,11 -30,20 -63,20l-98 0 0 -142zm899 -310l-119 0 -113 339 -107 -339 -170 0 194 535 -3 14c-4,17 -15,40 -29,51 -17,13 -41,14 -58,14 -24,0 -53,-3 -78,-7l0 117c28,5 63,8 88,8 48,0 84,-7 122,-39 38,-33 55,-73 68,-110l205 -583zm136 0l0 40c0,70 -2,95 -4,147 -5,118 -14,167 -30,197 -20,36 -50,44 -70,45 -4,0 -8,0 -12,0l0 114c13,3 26,4 39,4 62,0 111,-32 139,-71 52,-74 53,-208 59,-364l109 0 0 431 154 0 0 -543 -384 0zm512 378l0 165 164 0 0 -165 -164 0zm540 -565l0 730 166 0 0 -279 119 0c63,0 152,1 222,-88 34,-45 46,-93 46,-142 0,-100 -52,-153 -94,-180 -61,-39 -132,-41 -196,-41l-263 0zm166 323l0 -196 108 0c27,0 62,4 87,27 17,17 27,43 27,70 0,27 -11,54 -29,73 -27,25 -63,26 -88,26l-105 0zm914 -136l-119 0 -113 339 -107 -339 -170 0 194 535 -3 14c-4,17 -16,40 -29,51 -17,13 -42,14 -58,14 -24,0 -53,-3 -78,-7l0 117c28,5 62,8 88,8 48,0 84,-7 121,-39 39,-33 55,-73 69,-110l205 -583zm518 193c-6,-55 -31,-111 -70,-147 -39,-38 -98,-57 -158,-57 -67,0 -128,27 -168,64 -40,37 -84,108 -84,219 0,93 31,170 78,215 27,27 82,66 171,66 80,0 130,-31 159,-56 38,-34 66,-87 73,-148l-139 -15c-1,27 -9,57 -23,78 -18,28 -37,35 -64,35 -25,0 -50,-7 -70,-43 -15,-25 -23,-62 -23,-133 0,-84 12,-117 21,-133 16,-25 42,-42 71,-42 29,0 53,16 66,35 12,17 20,49 21,75l139 -13zm92 -193l0 543 289 0c50,0 94,-15 124,-40 29,-23 59,-66 59,-134 0,-57 -22,-102 -50,-127 -45,-41 -109,-43 -139,-43l-129 0 0 -199 -154 0zm154 289l73 0c21,0 39,1 58,15 18,14 26,31 26,53 0,30 -13,51 -25,61 -20,17 -46,18 -61,18l-71 0 0 -147zm415 -289l0 543 154 0 0 -228 47 0c32,0 53,8 68,49l7 19c10,24 12,38 26,81 19,55 34,71 57,79l145 0c-17,-23 -24,-38 -34,-62 -13,-33 -20,-48 -34,-90 -15,-42 -24,-69 -37,-89 -22,-33 -51,-48 -79,-52l0 -2c53,-4 73,-38 86,-72 9,-25 25,-82 41,-118 10,-19 24,-40 41,-58l-128 0c-13,2 -34,10 -50,39 -19,38 -18,75 -40,123 -11,24 -30,46 -74,46l-42 0 0 -208 -154 0zm740 0l-154 0 0 543 154 0 0 -543zm3 -194l-159 0 0 125 159 0 0 -125zm130 194l0 543 154 0 0 -45 143 -222c17,-26 23,-33 30,-52 -2,18 -4,40 -4,57l0 262 155 0 0 -543 -155 0 0 40 -144 223c-8,13 -16,26 -29,48 2,-12 4,-30 4,-58l0 -253 -154 0zm66 -194c2,98 90,141 172,141 83,0 170,-43 172,-141l-117 0c0,16 -5,63 -55,63 -49,0 -55,-47 -55,-63l-117 0zm704 572l-165 0 0 165 72 0 -74 167 67 0 100 -181 0 -151zm492 -306c1,-21 7,-57 23,-84 15,-27 47,-58 98,-58 30,0 57,10 76,28 20,21 30,50 30,78 0,73 -61,134 -107,170l-261 206 0 131 526 0 5 -136 -322 0 202 -159c27,-21 118,-99 118,-217 0,-55 -17,-120 -76,-170 -53,-44 -115,-59 -180,-59 -120,0 -187,57 -221,105 -29,40 -46,89 -52,133l141 32zm631 -50c15,-51 56,-92 119,-92 34,0 59,10 75,25 22,19 30,44 30,65 0,28 -13,53 -34,68 -26,19 -62,22 -96,22l-66 0 0 114 75 0c67,0 93,16 104,24 22,16 38,45 38,77 0,29 -13,56 -32,72 -22,19 -64,29 -92,29 -74,0 -122,-46 -138,-109l-144 26c38,149 161,210 289,210 76,0 157,-21 205,-60 28,-23 74,-73 74,-158 0,-96 -60,-157 -143,-174 70,-21 119,-83 119,-159 0,-52 -24,-101 -61,-136 -41,-37 -106,-64 -187,-64 -120,0 -233,60 -271,194l136 26zm996 -209l-454 0 -27 408 126 21c26,-41 67,-63 116,-63 30,0 58,8 83,32 29,27 37,63 37,90 0,31 -11,63 -34,88 -18,20 -44,37 -91,37 -41,0 -75,-13 -101,-43 -12,-14 -24,-33 -29,-55l-141 24c7,29 21,74 64,117 39,41 106,84 211,84 105,0 174,-42 212,-84 39,-40 68,-100 68,-175 0,-80 -33,-143 -78,-184 -34,-32 -87,-59 -163,-59 -69,0 -114,28 -143,55l12 -159 318 0 14 -134zm347 381l-246 0 0 127 246 0 0 -127zm100 -381l0 730 339 0c55,0 123,-7 176,-55 30,-27 61,-75 61,-149 0,-71 -29,-113 -59,-139 -23,-19 -52,-33 -82,-38l0 -2c29,-10 62,-30 82,-53 22,-26 39,-69 39,-111 0,-61 -25,-109 -59,-138 -54,-44 -127,-45 -172,-45l-325 0zm166 127l118 0c28,0 60,4 81,20 22,16 27,38 27,59 0,24 -5,45 -24,62 -26,23 -56,24 -88,24l-114 0 0 -165zm0 289l129 0c27,0 62,2 88,29 12,11 24,32 24,63 0,35 -16,57 -29,70 -26,23 -55,24 -79,24l-133 0 0 -186zm1288 -35l-518 0 0 127 518 0 0 -127zm-11606 967l0 543 155 0 0 -228 167 0 0 228 154 0 0 -543 -154 0 0 203 -167 0 0 -203 -155 0zm738 167c6,-30 24,-47 37,-55 22,-14 48,-16 70,-16 15,0 55,1 74,24 15,17 16,49 16,64l0 12 -50 2c-42,2 -137,11 -195,35 -90,38 -113,103 -113,158 0,48 21,93 54,121 34,29 84,41 133,41 110,0 157,-60 177,-97 1,37 4,65 8,87l151 0c-10,-33 -16,-74 -16,-117l0 -210c0,-40 2,-87 -19,-131 -39,-84 -127,-96 -214,-96 -68,0 -123,10 -165,34 -28,17 -74,55 -91,128l143 16zm197 115l0 29c0,61 -25,93 -28,97 -21,25 -57,39 -88,39 -21,0 -43,-5 -57,-17 -12,-9 -23,-25 -23,-48 0,-22 8,-38 17,-49 29,-37 80,-42 132,-47l47 -4zm677 435l0 -243c32,53 80,79 143,79 103,0 205,-83 205,-287 0,-161 -69,-277 -199,-277 -66,0 -128,34 -160,98l0 -87 -143 0 0 717 154 0zm0 -508c0,-65 35,-113 91,-113 58,0 96,50 96,173 0,92 -20,178 -96,178 -56,0 -91,-46 -91,-121l0 -117zm419 61c0,88 33,165 83,214 36,35 95,69 179,69 84,0 143,-34 179,-69 50,-49 83,-126 83,-214 0,-114 -54,-181 -79,-206 -61,-62 -131,-75 -183,-75 -52,0 -122,13 -183,75 -25,25 -79,92 -79,206zm262 177c-28,0 -57,-11 -77,-46 -12,-22 -23,-57 -23,-131 0,-40 2,-92 26,-132 18,-28 41,-42 74,-42 33,0 56,14 74,42 24,40 27,92 27,132 0,74 -12,109 -24,131 -20,35 -49,46 -77,46zm464 -267c5,-30 22,-49 31,-58 16,-13 40,-26 78,-26 20,0 36,3 54,16 14,9 23,21 23,41 0,33 -22,48 -27,51 -14,9 -43,15 -59,15l-52 0 0 91 52 0c24,0 53,5 70,18 20,14 22,33 22,49 0,23 -7,39 -26,52 -18,12 -44,18 -64,18 -33,0 -60,-12 -79,-31 -8,-9 -21,-27 -24,-53l-136 22c9,57 40,97 71,122 53,40 121,46 179,46 68,0 125,-9 166,-36 46,-30 74,-82 74,-131 0,-33 -13,-68 -34,-89 -20,-20 -52,-34 -81,-38l0 -3c32,-4 56,-18 73,-35 16,-16 34,-43 34,-85 0,-70 -52,-102 -86,-118 -44,-21 -90,-29 -143,-29 -42,0 -113,6 -169,47 -55,41 -71,94 -76,117l129 27zm627 -180l-154 0 0 543 154 0 0 -543zm2 -194l-159 0 0 125 159 0 0 -125zm379 7l0 730 166 0 0 -596 293 0 0 -134 -459 0zm881 550c-4,21 -14,40 -26,53 -15,15 -40,31 -78,31 -50,0 -79,-27 -94,-58 -13,-23 -19,-56 -18,-86l366 0 0 -27c0,-92 -29,-157 -61,-196 -35,-44 -99,-91 -199,-91 -47,0 -113,8 -174,61 -42,36 -93,103 -93,222 0,103 39,169 75,206 40,40 104,75 191,75 70,0 127,-19 169,-49 31,-22 69,-61 87,-127l-145 -14zm-216 -150c0,-33 12,-64 29,-83 19,-20 47,-34 79,-34 40,0 64,20 79,40 14,21 21,51 20,77l-207 0zm620 504l0 -243c32,53 80,79 143,79 102,0 205,-83 205,-287 0,-161 -70,-277 -199,-277 -66,0 -128,34 -161,98l0 -87 -143 0 0 717 155 0zm0 -508c0,-65 35,-113 90,-113 59,0 96,50 96,173 0,92 -19,178 -96,178 -56,0 -90,-46 -90,-121l0 -117zm418 61c0,88 33,165 83,214 37,35 96,69 180,69 83,0 142,-34 179,-69 49,-49 83,-126 83,-214 0,-114 -54,-181 -79,-206 -61,-62 -132,-75 -183,-75 -52,0 -123,13 -184,75 -25,25 -79,92 -79,206zm263 177c-28,0 -58,-11 -77,-46 -13,-22 -24,-57 -24,-131 0,-40 2,-92 27,-132 18,-28 40,-42 74,-42 33,0 55,14 73,42 25,40 27,92 27,132 0,74 -11,109 -24,131 -20,35 -49,46 -76,46zm539 -447l-154 0 0 543 154 0 0 -543zm79 -193l-119 0 0 124 119 0 0 -124zm-193 0l-119 0 0 124 119 0 0 -124zm268 193l0 543 319 0c36,0 83,-5 123,-34 33,-26 56,-68 56,-120 0,-53 -27,-83 -38,-93 -24,-25 -61,-37 -93,-40l0 -2c53,-9 104,-49 104,-123 0,-52 -26,-85 -52,-103 -33,-24 -80,-28 -118,-28l-301 0zm155 90l83 0c17,0 38,0 56,14 13,11 21,28 21,47 0,21 -7,38 -19,50 -19,17 -42,18 -61,18l-80 0 0 -129zm0 220l96 0c27,0 47,7 59,17 16,11 26,32 26,54 0,18 -7,39 -19,51 -11,11 -31,20 -64,20l-98 0 0 -142zm934 -497l-226 0 0 730 131 0 0 -569 2 0 176 569 108 0 172 -569 2 0 0 569 160 0 0 -730 -226 0 -148 466 -2 0 -149 -466zm794 354c6,-30 24,-47 37,-55 22,-14 48,-16 70,-16 15,0 55,1 74,24 15,17 16,49 16,64l0 12 -50 2c-43,2 -137,11 -195,35 -90,38 -113,103 -113,158 0,48 21,93 54,121 34,29 84,41 133,41 110,0 157,-60 177,-97 1,37 4,65 8,87l150 0c-9,-33 -15,-74 -15,-117l0 -210c0,-40 2,-87 -19,-131 -39,-84 -127,-96 -214,-96 -69,0 -123,10 -165,34 -28,17 -75,55 -91,128l143 16zm197 115l0 29c0,61 -25,93 -28,97 -21,25 -57,39 -88,39 -21,0 -43,-5 -57,-17 -12,-9 -23,-25 -23,-48 0,-22 8,-38 16,-49 29,-37 81,-42 133,-47l47 -4zm281 -282l0 543 155 0 0 -45 143 -222c16,-26 23,-33 30,-52 -2,18 -4,40 -4,57l0 262 154 0 0 -543 -154 0 0 40 -144 223c-9,13 -17,26 -29,48 2,-12 4,-30 4,-58l0 -253 -155 0zm67 -194c2,98 89,141 172,141 83,0 170,-43 172,-141l-117 0c0,16 -6,63 -55,63 -50,0 -55,-47 -55,-63l-117 0zm614 194l-1 39c-2,77 -1,135 -9,197 -7,48 -24,129 -60,195l-47 0 0 255 140 0 0 -143 270 0 0 143 140 0 0 -255 -59 0 0 -431 -374 0zm113 112l107 0 0 319 -159 0c29,-76 29,-77 38,-138 5,-26 14,-89 14,-161l0 -20zm556 55c6,-30 24,-47 38,-55 21,-14 47,-16 69,-16 15,0 55,1 75,24 14,17 15,49 15,64l0 12 -50 2c-42,2 -136,11 -194,35 -91,38 -113,103 -113,158 0,48 20,93 54,121 34,29 83,41 132,41 110,0 158,-60 177,-97 1,37 4,65 9,87l150 0c-10,-33 -16,-74 -16,-117l0 -210c0,-40 2,-87 -18,-131 -40,-84 -128,-96 -215,-96 -68,0 -123,10 -165,34 -28,17 -74,55 -91,128l143 16zm197 115l0 29c0,61 -25,93 -28,97 -21,25 -57,39 -88,39 -21,0 -42,-5 -57,-17 -11,-9 -23,-25 -23,-48 0,-22 9,-38 17,-49 29,-37 81,-42 132,-47l47 -4zm282 -282l0 543 154 0 0 -228 167 0 0 228 154 0 0 -543 -154 0 0 203 -167 0 0 -203 -154 0zm1045 0l-119 0 -113 339 -107 -339 -170 0 194 535 -3 14c-4,17 -15,40 -29,51 -17,13 -41,14 -58,14 -24,0 -53,-3 -78,-7l0 117c28,5 63,8 88,8 48,0 84,-7 122,-39 38,-33 54,-73 68,-110l205 -583zm-8572 1161l-154 0 0 543 154 0 0 -543zm2 -194l-158 0 0 125 158 0 0 -125zm379 7l0 730 746 0 0 153 151 0 0 -287 -69 0 0 -596 -161 0 0 596 -173 0 0 -596 -160 0 0 596 -173 0 0 -596 -161 0zm1336 550c-5,21 -14,40 -26,53 -15,15 -40,31 -78,31 -50,0 -79,-27 -94,-58 -13,-23 -19,-56 -18,-86l366 0 0 -27c0,-92 -29,-157 -61,-196 -36,-44 -99,-91 -199,-91 -47,0 -113,8 -174,61 -42,36 -94,103 -94,222 0,103 40,169 76,206 39,40 104,75 191,75 70,0 127,-19 169,-49 31,-22 69,-61 87,-127l-145 -14zm-216 -150c0,-33 12,-64 29,-83 19,-20 47,-34 79,-34 40,0 64,20 79,40 14,22 21,51 20,77l-207 0zm620 504l0 -243c32,53 79,79 143,79 102,0 205,-83 205,-287 0,-161 -70,-277 -199,-277 -67,0 -129,34 -161,98l0 -87 -143 0 0 717 155 0zm0 -508c0,-65 35,-113 90,-113 59,0 96,50 96,173 0,92 -20,178 -96,178 -56,0 -90,-46 -90,-121l0 -117zm928 -408c-79,21 -139,29 -216,40 -69,11 -135,25 -191,80 -76,76 -95,205 -95,298 0,139 44,213 72,248 54,67 119,86 198,86 74,0 150,-13 209,-86 28,-35 60,-96 60,-187 0,-110 -49,-173 -91,-204 -49,-38 -104,-45 -145,-45 -89,0 -155,33 -197,104l-2 0c11,-88 52,-123 78,-138 29,-17 63,-24 100,-30 69,-12 6,0 100,-16 46,-9 82,-18 120,-33l0 -117zm-231 329c32,0 56,12 75,34 27,34 32,81 32,120 0,37 -3,93 -35,130 -20,25 -48,33 -74,33 -24,0 -48,-10 -66,-28 -41,-38 -42,-99 -42,-133 0,-33 4,-90 37,-125 15,-16 39,-31 73,-31zm499 37c7,-30 24,-47 38,-55 21,-14 47,-16 69,-16 16,0 55,1 75,24 14,17 15,49 15,64l0 12 -50 2c-42,2 -136,11 -194,35 -91,38 -113,103 -113,158 0,49 21,93 54,121 34,29 83,41 132,41 110,0 158,-60 177,-96 1,36 5,65 9,86l150 0c-9,-33 -16,-74 -16,-117l0 -210c0,-40 2,-87 -18,-131 -40,-84 -128,-96 -215,-96 -68,0 -123,10 -164,34 -28,17 -75,55 -92,128l143 16zm197 115l0 29c0,62 -25,93 -28,97 -21,25 -57,39 -88,39 -21,0 -42,-5 -57,-17 -11,-9 -23,-25 -23,-48 0,-22 9,-38 17,-49 29,-37 81,-42 132,-47l47 -4zm282 -282l0 543 154 0 0 -228 167 0 0 228 154 0 0 -543 -154 0 0 203 -167 0 0 -203 -154 0zm606 0l0 543 154 0 0 -227 61 0c10,70 42,130 81,168 36,35 96,69 181,69 96,0 154,-43 180,-69 49,-49 83,-126 83,-214 0,-114 -54,-181 -79,-206 -61,-62 -132,-75 -184,-75 -51,0 -122,13 -183,75 -16,17 -57,64 -72,140l-68 0 0 -204 -154 0zm477 447c-27,0 -56,-11 -76,-46 -13,-22 -24,-57 -24,-131 0,-40 2,-92 27,-132 18,-28 40,-42 73,-42 34,0 56,14 74,42 25,40 27,92 27,132 0,74 -11,109 -24,131 -19,35 -48,46 -77,46zm362 -447l0 543 154 0 0 -228 47 0c32,0 53,8 68,49l8 19c9,24 11,38 26,81 18,55 34,71 57,79l145 0c-18,-23 -24,-37 -35,-62 -13,-33 -19,-48 -34,-90 -14,-42 -24,-69 -37,-89 -22,-33 -51,-48 -79,-52l0 -2c53,-4 74,-38 86,-72 9,-25 25,-82 42,-117 9,-20 23,-41 40,-59l-127 0c-14,2 -35,10 -50,39 -20,38 -19,75 -41,123 -11,24 -30,47 -74,47l-42 0 0 -209 -154 0zm716 167c6,-30 24,-47 37,-55 22,-14 48,-16 70,-16 15,0 55,1 74,24 15,17 16,49 16,64l0 12 -50 2c-42,2 -137,11 -195,35 -90,38 -113,103 -113,158 0,49 21,93 54,121 34,29 84,41 133,41 110,0 157,-60 177,-96 1,36 4,65 8,86l150 0c-9,-33 -15,-74 -15,-117l0 -210c0,-40 2,-87 -19,-131 -39,-84 -127,-96 -214,-96 -68,0 -123,10 -165,34 -28,17 -74,55 -91,128l143 16zm197 115l0 29c0,62 -25,93 -28,97 -21,25 -57,39 -88,39 -21,0 -43,-5 -57,-17 -12,-9 -23,-25 -23,-48 0,-22 8,-38 17,-49 29,-37 80,-42 132,-47l47 -4zm-9051 879l0 543 154 0 0 -228 167 0 0 228 154 0 0 -543 -154 0 0 203 -167 0 0 -203 -154 0z"/>
   <path class="fil0" d="M943 3848c6,-30 23,-47 37,-55 22,-14 47,-16 69,-16 16,0 55,1 75,24 14,17 15,49 15,64l0 12 -49 2c-43,2 -137,11 -195,35 -90,38 -113,103 -113,158 0,49 21,93 54,121 34,29 84,41 133,41 109,0 157,-60 177,-96 1,36 4,65 8,86l150 0c-9,-33 -15,-74 -15,-117l0 -210c0,-40 2,-87 -19,-131 -39,-84 -127,-96 -214,-96 -69,0 -124,10 -165,35 -28,16 -75,54 -91,127l143 16zm196 115l0 29c0,62 -24,93 -28,97 -20,25 -57,39 -88,39 -20,0 -42,-5 -57,-17 -11,-9 -22,-25 -22,-48 0,-22 8,-38 16,-49 29,-37 81,-42 133,-47l46 -4zm523 -282l0 543 319 0c36,0 83,-4 123,-34 33,-26 56,-68 56,-119 0,-54 -27,-83 -37,-94 -25,-25 -62,-37 -94,-40l0 -2c53,-9 104,-49 104,-123 0,-52 -26,-85 -52,-103 -33,-24 -80,-28 -118,-28l-301 0zm155 91l83 0c17,0 38,0 56,13 13,11 21,28 21,47 0,21 -7,38 -19,50 -19,17 -42,18 -61,18l-80 0 0 -128zm0 219l96 0c27,0 47,7 59,17 16,11 26,32 26,54 0,18 -7,39 -19,51 -11,11 -31,20 -64,20l-98 0 0 -142zm899 -310l-119 0 -113 339 -107 -339 -170 0 194 535 -3 14c-4,17 -15,41 -29,51 -17,13 -41,14 -58,14 -24,0 -53,-3 -78,-7l0 117c28,5 63,8 88,8 48,0 84,-7 122,-39 38,-33 54,-73 68,-110l205 -583zm136 0l0 40c0,70 -2,95 -4,147 -5,119 -14,167 -30,197 -20,36 -50,44 -70,45 -4,0 -8,0 -12,0l0 114c13,3 26,4 39,4 62,0 111,-32 139,-71 52,-74 53,-208 59,-364l109 0 0 431 154 0 0 -543 -384 0zm512 378l0 165 164 0 0 -165 -164 0zm540 -565l0 730 166 0 0 -315 62 0c32,0 64,2 85,32 6,8 15,24 27,69l19 66c9,32 23,76 33,98 21,41 42,49 55,50l153 0c-20,-21 -31,-42 -43,-73 -19,-45 -29,-85 -45,-137 -20,-65 -40,-123 -88,-155 -16,-11 -35,-18 -56,-21l0 -5c16,-2 33,-8 51,-23 30,-27 43,-67 53,-100l16 -60c19,-67 36,-100 48,-119 8,-14 14,-25 31,-37l-130 0c-17,0 -33,5 -50,25 -21,24 -32,57 -41,85l-19 69c-13,42 -21,78 -54,99 -19,11 -39,13 -55,13l-52 0 0 -291 -166 0zm807 354c7,-30 24,-47 38,-55 21,-14 47,-16 69,-16 16,0 55,1 75,24 14,17 15,49 15,64l0 12 -50 2c-42,2 -136,11 -194,35 -90,38 -113,103 -113,158 0,49 21,93 54,121 34,29 84,41 132,41 110,0 158,-60 177,-96 1,36 5,65 9,86l150 0c-9,-33 -16,-74 -16,-117l0 -210c0,-40 2,-87 -18,-131 -40,-84 -128,-96 -215,-96 -68,0 -123,10 -164,35 -28,16 -75,54 -92,127l143 16zm197 115l0 29c0,62 -25,93 -28,97 -20,25 -57,39 -88,39 -21,0 -42,-5 -57,-17 -11,-9 -23,-25 -23,-48 0,-22 9,-38 17,-49 29,-37 81,-42 133,-47l46 -4zm436 435l0 -243c33,53 80,79 143,79 103,0 205,-83 205,-287 0,-161 -69,-277 -199,-277 -66,0 -128,35 -160,98l0 -87 -143 0 0 717 154 0zm0 -508c0,-65 36,-113 90,-113 59,0 97,50 97,173 0,92 -20,178 -97,178 -55,0 -90,-46 -90,-121l0 -117zm450 -209l0 543 118 0 0 -361c0,-8 -1,-17 -3,-64 18,43 18,51 23,65l122 360 88 0 115 -360c3,-9 8,-21 25,-65 0,15 -1,23 -2,31 -1,10 -2,16 -2,35l0 359 141 0 0 -543 -198 0 -111 334 -114 -334 -202 0zm1101 363c-4,21 -13,40 -26,53 -14,15 -39,31 -77,31 -50,0 -79,-27 -95,-57 -12,-24 -18,-57 -17,-87l365 0 0 -27c0,-92 -29,-157 -61,-196 -35,-44 -98,-91 -199,-91 -46,0 -113,8 -174,61 -41,36 -93,103 -93,222 0,103 40,169 76,206 39,40 103,75 190,75 71,0 128,-19 169,-49 31,-22 70,-61 87,-127l-145 -14zm-215 -150c0,-33 11,-64 29,-83 18,-20 46,-34 78,-34 41,0 65,20 79,40 15,22 22,51 21,77l-207 0zm531 -213l0 40c0,70 -2,95 -4,147 -5,119 -13,167 -30,197 -20,36 -50,44 -69,45 -5,0 -9,0 -13,0l0 114c14,3 26,4 40,4 62,0 110,-32 138,-71 52,-74 53,-208 59,-364l109 0 0 431 155 0 0 -543 -385 0zm515 0l0 543 154 0 0 -227 62 0c9,70 41,130 80,168 37,35 97,69 182,69 95,0 153,-43 179,-69 50,-49 83,-126 83,-214 0,-113 -54,-181 -79,-206 -61,-62 -132,-75 -183,-75 -52,0 -123,13 -184,75 -16,17 -57,64 -72,140l-68 0 0 -204 -154 0zm478 447c-28,0 -57,-11 -77,-46 -13,-22 -24,-57 -24,-131 0,-40 2,-92 27,-132 18,-28 40,-42 74,-42 33,0 56,14 73,42 25,40 27,92 27,132 0,74 -11,109 -24,131 -19,35 -48,46 -76,46zm361 -447l0 543 155 0 0 -228 46 0c32,0 53,9 69,49l7 19c9,24 11,38 26,81 18,55 34,71 57,79l145 0c-18,-23 -24,-37 -35,-62 -13,-33 -19,-48 -34,-90 -14,-42 -23,-69 -37,-89 -22,-33 -51,-48 -79,-52l0 -2c53,-4 74,-38 86,-72 10,-25 25,-82 42,-117 9,-20 24,-41 40,-59l-127 0c-14,2 -34,10 -50,39 -20,38 -19,75 -40,123 -12,24 -30,47 -75,47l-41 0 0 -209 -155 0zm716 167c6,-30 24,-47 37,-55 22,-14 48,-16 70,-16 15,0 55,1 74,24 15,17 16,49 16,64l0 12 -50 2c-42,2 -137,11 -194,35 -91,38 -114,103 -114,158 0,49 21,93 54,121 35,29 84,41 133,41 110,0 157,-60 177,-96 1,36 4,65 8,86l151 0c-10,-33 -16,-74 -16,-117l0 -210c0,-40 2,-87 -19,-131 -39,-84 -127,-96 -214,-96 -68,0 -123,10 -165,35 -28,16 -74,54 -91,127l143 16zm197 115l0 29c0,62 -25,93 -28,97 -21,25 -57,39 -88,39 -21,0 -43,-5 -57,-17 -11,-9 -23,-25 -23,-48 0,-22 8,-38 17,-49 29,-37 81,-42 132,-47l47 -4zm443 96l-164 0 0 165 71 0 -73 167 67 0 99 -181 0 -151zm492 -306c1,-21 8,-57 23,-84 16,-27 48,-58 99,-58 30,0 56,10 75,28 21,21 30,51 30,78 0,73 -61,134 -107,170l-261 206 0 131 527 0 5 -136 -322 0 202 -159c27,-21 118,-99 118,-217 0,-55 -18,-120 -77,-170 -53,-44 -115,-59 -179,-59 -120,0 -188,58 -222,105 -29,40 -45,89 -52,133l141 32zm850 -259l-119 0c-28,40 -57,64 -93,86 -38,23 -78,43 -118,56l0 136c51,-19 88,-39 172,-95l0 411 -189 0 0 136 526 0 0 -136 -179 0 0 -594z"/>
  </g>
 </g>
</svg>
