<?xml version="1.0" encoding="UTF-8"?>
<!DOCTYPE svg PUBLIC "-//W3C//DTD SVG 1.1//EN" "http://www.w3.org/Graphics/SVG/1.1/DTD/svg11.dtd">
<!-- Creator: CorelDRAW X7 -->
<svg xmlns="http://www.w3.org/2000/svg" xml:space="preserve" width="19.3119mm" height="4.7244mm" version="1.1" style="shape-rendering:geometricPrecision; text-rendering:geometricPrecision; image-rendering:optimizeQuality; fill-rule:evenodd; clip-rule:evenodd"
viewBox="0 0 155051 37931"
 xmlns:xlink="http://www.w3.org/1999/xlink">
 <defs>
  <style type="text/css">
   <![CDATA[
    .fil1 {fill:#E31E24;fill-rule:nonzero}
    .fil0 {fill:#393185;fill-rule:nonzero}
   ]]>
  </style>
 </defs>
 <g id="Layer_x0020_1">
  <metadata id="CorelCorpID_0Corel-Layer"/>
  <g id="_839604608">
   <path class="fil0" d="M11672 2004l1201 0c566,0 796,-119 796,-489 0,-335 -279,-474 -803,-474l-1542 0c-587,0 -782,195 -782,795l0 3456c0,572 195,712 767,712l1117 0c1118,0 1766,-677 1766,-1494 0,-1208 -914,-1536 -1905,-1536l-615 0 0 -970zm0 1912l545 0c530,0 789,189 789,559 0,363 -272,565 -768,565l-566 0 0 -1124zm3302 -1675c-300,0 -537,237 -537,545 0,91 14,202 63,307l1110 2590 -454 984c-63,140 -91,259 -91,377 0,322 202,530 545,530 244,0 362,-160 481,-446l1676 -3979c62,-147 91,-287 91,-384 0,-321 -210,-524 -545,-524 -223,0 -363,140 -482,440l-677 1752 -621 -1661c-126,-342 -251,-531 -559,-531zm4281 49c-364,0 -580,132 -580,803l0 1243c0,272 -70,502 -217,725 -467,0 -531,244 -531,699l0 712c0,544 147,802 517,802 384,0 531,-251 531,-802l0 -468 2220 0 0 468c0,551 119,802 524,802 391,0 523,-258 523,-802l0 -712c0,-468 -104,-699 -531,-699l0 -1968c0,-635 -223,-803 -586,-803l-1870 0zm1360 942l0 1829 -1109 0c76,-55 181,-397 181,-558l0 -1271 928 0zm2674 -991c-377,0 -552,258 -552,796l0 2213c0,537 175,803 552,803 377,0 544,-266 544,-803l0 -2213c0,-538 -174,-796 -544,-796zm0 -1571c-349,0 -635,280 -635,629 0,356 279,635 635,635 349,0 628,-279 628,-635 0,-349 -279,-629 -628,-629l0 0zm3819 3303c342,-106 733,-419 733,-859 0,-587 -426,-873 -1124,-873l-1431 0c-406,0 -663,266 -663,803l0 2171c0,558 187,789 565,789l1480 0c712,0 1361,-370 1361,-1110 0,-600 -579,-866 -921,-921l0 0zm-1389 -901l669 0c342,0 406,174 406,307 0,182 -161,342 -440,342l-635 0 0 -649zm0 1305l684 0c293,0 544,105 544,342 0,259 -189,405 -544,405l-684 0 0 -747zm3825 70l1969 0c370,0 544,-70 544,-446 0,-985 -740,-1808 -1793,-1808 -1055,0 -1851,830 -1851,1954 0,1124 824,1948 1906,1948 956,0 1655,-461 1655,-894 0,-251 -175,-425 -440,-425 -252,0 -607,355 -1159,355 -475,0 -782,-272 -831,-684zm-7 -712c77,-405 363,-650 733,-650 370,0 691,266 719,650l-1452 0zm5125 -503l0 2018c0,559 181,803 544,803 377,0 552,-280 552,-803l0 -2157c0,-558 -217,-803 -586,-803l-1872 0c-356,0 -579,266 -579,803l0 1494c0,482 -363,712 -363,1047 0,244 175,461 447,461 586,0 928,-838 928,-1592l0 -1271 929 0zm2401 -991c-376,0 -551,266 -551,803l0 2171c0,558 209,789 551,789l1139 0c1011,0 1647,-559 1647,-1334 0,-676 -405,-1186 -1655,-1186l-586 0 0 -440c0,-558 -188,-803 -545,-803zm545 2025l607 0c321,0 538,98 538,412 0,258 -154,446 -538,446l-607 0 0 -858zm3889 -650l0 -579c0,-510 -112,-796 -517,-796 -398,0 -579,266 -579,803l0 2206c0,559 188,803 544,803 377,0 552,-287 552,-810l0 -747 1137 0 0 754c0,559 182,803 545,803 377,0 551,-280 551,-803l0 -2206c0,-558 -181,-803 -537,-803 -377,0 -559,266 -559,803l0 572 -1137 0zm4628 -418c398,0 719,397 719,935 0,545 -314,956 -719,956 -404,0 -712,-398 -712,-956 0,-544 314,-935 712,-935zm747 2471c119,265 279,384 523,384 371,0 546,-266 546,-803l0 -2213c0,-538 -168,-796 -546,-796 -223,0 -397,126 -523,349 -223,-265 -503,-397 -879,-397 -936,0 -1711,837 -1711,1954 0,1152 768,1948 1668,1948 378,0 699,-154 922,-426zm6981 -4999c-384,0 -544,224 -544,803l0 1096c-203,-223 -503,-376 -873,-376 -943,0 -1683,823 -1683,1940 0,1089 740,1962 1683,1962 321,0 600,-70 873,-293l0 935c0,565 181,803 544,803 391,0 551,-266 551,-803l0 -935c265,223 545,293 866,293 950,0 1689,-859 1689,-1948 0,-1110 -739,-1954 -1675,-1954 -370,0 -677,153 -880,376l0 -1096c0,-600 -188,-803 -551,-803zm1256 2528c426,0 720,433 720,963 0,573 -294,928 -720,928 -440,0 -705,-383 -705,-928 0,-545 286,-963 705,-963zm-2505 0c425,0 705,418 705,963 0,545 -266,928 -713,928 -426,0 -712,-349 -712,-935 0,-538 293,-956 720,-956zm5494 -957c-378,0 -552,258 -552,796l0 2213c0,537 174,803 552,803 376,0 544,-266 544,-803l0 -2213c0,-538 -174,-796 -544,-796zm0 -1571c-350,0 -635,280 -635,629 0,356 278,635 635,635 349,0 628,-279 628,-635 0,-349 -279,-629 -628,-629l0 0zm2408 1892c-133,-237 -307,-321 -524,-321 -376,0 -551,230 -551,768l0 3700c0,538 175,803 551,803 377,0 545,-265 545,-803l0 -943c252,217 537,329 873,329 921,0 1689,-866 1689,-1976 0,-1131 -754,-1926 -1675,-1926 -378,0 -684,125 -908,369l0 0zm733 636c405,0 719,376 719,935 0,573 -300,956 -719,956 -419,0 -712,-370 -712,-949 0,-573 307,-942 712,-942zm3148 -957c-356,0 -579,175 -628,803l-154 1947c-13,189 -28,363 -28,412 0,427 161,650 489,650 363,0 552,-238 601,-803l97 -1138 796 1473c133,245 342,468 524,468 181,0 397,-196 523,-433l811 -1508 90 1138c42,552 237,803 600,803 328,0 489,-223 489,-656 0,-49 -14,-251 -28,-412l-146 -1941c-49,-677 -280,-803 -636,-803 -188,0 -384,77 -516,321l-1153 2080 -1165 -2003c-182,-314 -377,-398 -566,-398zm6541 957c398,0 719,397 719,935 0,545 -314,956 -719,956 -404,0 -712,-398 -712,-956 0,-544 314,-935 712,-935zm747 2471c119,265 280,384 524,384 370,0 545,-266 545,-803l0 -2213c0,-538 -168,-796 -545,-796 -224,0 -398,126 -524,349 -223,-265 -502,-397 -879,-397 -935,0 -1711,837 -1711,1954 0,1152 768,1948 1668,1948 378,0 699,-154 922,-426zm5187 -2841c-154,0 -349,139 -496,321l-880 1060 880 1062c147,181 342,321 496,321 196,0 307,-104 307,-251 0,-133 -42,-217 -230,-440l-580 -692 580 -690c188,-224 230,-307 230,-440 0,-147 -111,-251 -307,-251zm1626 0c-153,0 -348,139 -495,321l-880 1060 880 1062c147,181 342,321 495,321 196,0 308,-104 308,-251 0,-133 -42,-217 -231,-440l-579 -692 579 -690c189,-224 231,-307 231,-440 0,-147 -112,-251 -308,-251zm1362 -1871c-391,0 -565,265 -565,802l0 866c0,1417 886,1703 1801,1703 412,0 900,-188 1137,-327l0 1263c0,551 189,803 566,803 398,0 566,-273 566,-803l0 -3505c0,-558 -196,-802 -566,-802 -391,0 -566,265 -566,802l0 1194c-327,287 -642,433 -1075,433 -439,0 -733,-161 -733,-845l0 -782c0,-558 -195,-802 -565,-802zm5250 3490l1969 0c370,0 544,-70 544,-446 0,-985 -740,-1808 -1794,-1808 -1054,0 -1850,830 -1850,1954 0,1124 824,1948 1906,1948 956,0 1655,-461 1655,-894 0,-251 -175,-425 -440,-425 -252,0 -607,355 -1159,355 -475,0 -782,-272 -831,-684zm-7 -712c77,-405 363,-650 733,-650 370,0 691,266 719,650l-1452 0zm4147 -1173c-133,-237 -307,-321 -524,-321 -376,0 -551,230 -551,768l0 3700c0,538 175,803 551,803 378,0 545,-265 545,-803l0 -943c252,217 537,329 873,329 921,0 1689,-866 1689,-1976 0,-1131 -754,-1926 -1675,-1926 -378,0 -684,125 -908,369l0 0zm734 636c404,0 718,376 718,935 0,573 -300,956 -718,956 -420,0 -713,-370 -713,-949 0,-573 307,-942 713,-942zm3497 418l0 -579c0,-510 -112,-796 -517,-796 -398,0 -579,266 -579,803l0 2206c0,559 188,803 544,803 377,0 552,-287 552,-810l0 -747 1138 0 0 754c0,559 181,803 544,803 377,0 551,-280 551,-803l0 -2206c0,-558 -181,-803 -537,-803 -377,0 -558,266 -558,803l0 572 -1138 0zm3574 -1375c-377,0 -551,258 -551,796l0 2213c0,537 174,803 551,803 377,0 545,-266 545,-803l0 -2213c0,-538 -175,-796 -545,-796zm0 -1571c-349,0 -635,280 -635,629 0,356 279,635 635,635 349,0 628,-279 628,-635 0,-349 -279,-629 -628,-629l0 0zm3819 3303c342,-106 733,-419 733,-859 0,-587 -426,-873 -1124,-873l-1431 0c-405,0 -663,266 -663,803l0 2171c0,558 188,789 565,789l1480 0c712,0 1361,-370 1361,-1110 0,-600 -579,-866 -921,-921l0 0zm-1389 -901l669 0c342,0 406,174 406,307 0,182 -161,342 -440,342l-635 0 0 -649zm0 1305l684 0c293,0 544,105 544,342 0,259 -189,405 -544,405l-684 0 0 -747zm3993 684l0 -2017c0,-531 -168,-803 -545,-803 -356,0 -551,245 -551,803l0 2157c0,538 175,803 551,803l2263 0 0 495c0,552 146,803 544,803 370,0 503,-286 503,-830l0 -712c0,-559 -224,-699 -538,-699l0 -1989c0,-531 -175,-831 -545,-831 -363,0 -551,245 -551,803l0 2017 -1131 0zm3832 -2820c-377,0 -551,258 -551,796l0 2213c0,537 174,803 551,803 377,0 545,-266 545,-803l0 -2213c0,-538 -174,-796 -545,-796zm0 -1571c-349,0 -635,280 -635,629 0,356 279,635 635,635 350,0 628,-279 628,-635 0,-349 -278,-629 -628,-629l0 0zm3721 1571c-370,0 -537,266 -537,803l0 468 -936 -971c-195,-202 -370,-300 -566,-300 -257,0 -460,196 -460,426 0,174 105,370 279,531l740 684 -1026 1207c-147,175 -217,335 -217,531 0,251 224,433 517,433 209,0 398,-91 573,-321l1096 -1466 0 991c0,537 167,796 537,796 384,0 559,-266 559,-803l0 -992 1096 1467c174,230 363,328 572,328 293,0 516,-189 516,-440 0,-195 -70,-356 -216,-531l-1026 -1207 740 -684c175,-161 279,-357 279,-531 0,-230 -189,-419 -453,-419 -189,0 -378,91 -573,294l-935 970 0 -468c0,-538 -182,-796 -559,-796zm3708 0c-378,0 -545,266 -545,803l0 2206c0,559 188,803 545,803 181,0 306,-56 404,-196l1271 -1766 0 1159c0,559 182,803 545,803 362,0 551,-280 551,-803l0 -2206c0,-558 -202,-803 -551,-803 -189,0 -378,70 -545,321l-1124 1683 0 -1201c0,-558 -196,-803 -551,-803zm3839 49c-440,0 -621,126 -621,468 0,307 153,474 635,474l489 0 0 2018c0,559 195,803 558,803 377,0 537,-259 537,-803l0 -2018 461 0c482,0 671,-167 671,-474 0,-342 -189,-468 -663,-468l-2067 0zm5229 942l0 2018c0,559 182,803 544,803 378,0 552,-280 552,-803l0 -2157c0,-558 -217,-803 -586,-803l-1872 0c-355,0 -578,266 -578,803l0 1494c0,482 -363,712 -363,1047 0,244 174,461 446,461 586,0 928,-838 928,-1592l0 -1271 929 0zm3512 -1039c-1082,0 -1864,809 -1864,1954 0,1145 782,1948 1864,1948 1089,0 1857,-803 1857,-1948 0,-1145 -768,-1954 -1857,-1954zm0 1005c405,0 726,376 726,935 0,573 -307,956 -726,956 -419,0 -733,-370 -733,-949 0,-573 328,-942 733,-942zm6129 949c0,-1340 -796,-1954 -1717,-1954 -629,0 -1019,320 -1306,690 0,-970 545,-1187 1166,-1361 614,-175 1159,-279 1550,-530 216,-147 307,-335 307,-517 0,-245 -202,-475 -454,-475 -105,0 -223,28 -342,91 -502,251 -1222,265 -1940,768 -859,601 -985,1585 -985,2611l0 677c0,1264 796,1948 1864,1948 1096,0 1857,-810 1857,-1948zm-1857 -949c495,0 726,439 726,935 0,573 -301,956 -726,956 -440,0 -733,-404 -733,-956 0,-663 314,-935 733,-935l0 0zm2604 -957c-301,0 -538,237 -538,545 0,91 14,202 63,307l1110 2590 -454 984c-62,140 -91,259 -91,377 0,322 203,530 545,530 245,0 363,-160 481,-446l1676 -3979c63,-147 91,-287 91,-384 0,-321 -210,-524 -545,-524 -223,0 -362,140 -481,440l-678 1752 -621 -1661c-126,-342 -251,-531 -558,-531zm4280 49c-364,0 -580,132 -580,803l0 1243c0,272 -70,502 -217,725 -467,0 -530,244 -530,699l0 712c0,544 147,802 517,802 383,0 530,-251 530,-802l0 -468 2220 0 0 468c0,551 119,802 524,802 391,0 523,-258 523,-802l0 -712c0,-468 -104,-699 -530,-699l0 -1968c0,-635 -224,-803 -586,-803l-1871 0zm1361 942l0 1829 -1110 0c76,-55 182,-397 182,-558l0 -1271 928 0zm3783 -404c-195,0 -307,104 -307,251 0,133 42,216 231,440l578 690 -578 692c-189,223 -231,307 -231,440 0,147 112,251 307,251 154,0 349,-140 496,-321l879 -1062 -879 -1060c-147,-182 -342,-321 -496,-321zm-1627 0c-195,0 -306,104 -306,251 0,133 41,216 230,440l580 690 -580 692c-189,223 -230,307 -230,440 0,147 111,251 306,251 154,0 349,-140 496,-321l880 -1062 -880 -1060c-147,-182 -342,-321 -496,-321zm-141444 29770c-300,0 -538,237 -538,545 0,90 14,202 63,306l1110 2591 -454 984c-62,140 -90,258 -90,377 0,321 202,530 544,530 245,0 363,-160 482,-446l1675 -3979c63,-147 91,-287 91,-384 0,-321 -209,-524 -544,-524 -223,0 -363,139 -482,440l-678 1752 -620 -1662c-126,-342 -252,-530 -559,-530zm7944 0c-370,0 -537,265 -537,802l0 469 -935 -971c-196,-202 -370,-300 -566,-300 -258,0 -461,195 -461,426 0,174 105,370 279,531l741 684 -1026 1207c-147,174 -217,335 -217,531 0,251 223,433 517,433 209,0 397,-91 572,-322l1096 -1466 0 992c0,537 167,796 537,796 384,0 559,-266 559,-803l0 -992 1096 1466c174,231 363,329 573,329 293,0 516,-189 516,-440 0,-195 -70,-356 -216,-531l-1026 -1208 739 -684c175,-160 280,-356 280,-530 0,-231 -189,-419 -454,-419 -189,0 -377,90 -572,293l-936 970 0 -467c0,-538 -181,-796 -559,-796zm3708 0c-377,0 -544,265 -544,802l0 2207c0,559 188,803 544,803 182,0 307,-57 405,-196l1271 -1766 0 1159c0,559 181,803 544,803 363,0 552,-280 552,-803l0 -2207c0,-558 -203,-802 -552,-802 -189,0 -377,69 -544,321l-1124 1683 0 -1202c0,-558 -196,-802 -552,-802zm3839 49c-440,0 -621,126 -621,468 0,306 153,474 635,474l489 0 0 2018c0,559 195,803 558,803 377,0 538,-259 538,-803l0 -2018 461 0c482,0 670,-168 670,-474 0,-342 -188,-468 -663,-468l-2067 0zm5230 942l0 2018c0,559 181,803 544,803 377,0 551,-280 551,-803l0 -2158c0,-558 -216,-802 -586,-802l-1871 0c-356,0 -579,265 -579,802l0 1495c0,481 -363,712 -363,1047 0,244 174,460 447,460 586,0 928,-837 928,-1591l0 -1271 929 0zm3511 -1040c-1082,0 -1864,810 -1864,1955 0,1145 782,1947 1864,1947 1089,0 1857,-802 1857,-1947 0,-1145 -768,-1955 -1857,-1955zm0 1006c405,0 726,376 726,935 0,572 -307,956 -726,956 -419,0 -733,-370 -733,-950 0,-572 329,-941 733,-941zm4894 774c342,-105 733,-419 733,-859 0,-586 -426,-872 -1124,-872l-1431 0c-405,0 -663,265 -663,802l0 2171c0,559 188,790 565,790l1480 0c712,0 1362,-370 1362,-1111 0,-599 -580,-865 -922,-921l0 0zm-1389 -900l669 0c343,0 406,174 406,307 0,182 -161,342 -440,342l-635 0 0 -649zm0 1305l684 0c293,0 544,104 544,342 0,259 -188,405 -544,405l-684 0 0 -747zm3442 -2136c-378,0 -545,265 -545,802l0 2207c0,559 188,803 545,803 181,0 307,-57 404,-196l1271 -1766 0 1159c0,559 182,803 545,803 363,0 551,-280 551,-803l0 -2207c0,-558 -202,-802 -551,-802 -189,0 -378,69 -545,321l-1124 1683 0 -1202c0,-558 -196,-802 -551,-802zm3832 0c-279,0 -516,265 -516,551 0,147 76,308 209,447l768 782 -915 1006c-139,153 -230,265 -230,481 0,307 251,545 531,545 181,0 314,-98 474,-287l782 -935 789 935c160,189 300,287 502,287 280,0 504,-238 504,-510 0,-251 -119,-391 -259,-545l-859 -970 727 -775c160,-174 244,-335 244,-475 0,-293 -259,-537 -566,-537 -139,0 -314,90 -447,251l-614 754 -670 -775c-140,-161 -286,-230 -454,-230zm9257 1906c0,-1340 -796,-1955 -1717,-1955 -629,0 -1019,321 -1306,691 0,-970 545,-1187 1166,-1361 614,-175 1159,-279 1550,-531 216,-147 307,-335 307,-516 0,-245 -202,-475 -454,-475 -105,0 -223,28 -342,90 -502,252 -1222,266 -1940,769 -859,600 -984,1585 -984,2611l0 677c0,1263 795,1947 1863,1947 1096,0 1857,-810 1857,-1947zm-1857 -949c495,0 726,439 726,935 0,572 -300,956 -726,956 -440,0 -733,-404 -733,-956 0,-663 314,-935 733,-935l0 0zm2604 -957c-300,0 -538,237 -538,545 0,90 14,202 63,306l1110 2591 -454 984c-62,140 -90,258 -90,377 0,321 202,530 544,530 245,0 363,-160 482,-446l1675 -3979c63,-147 91,-287 91,-384 0,-321 -210,-524 -544,-524 -224,0 -363,139 -482,440l-678 1752 -620 -1662c-126,-342 -252,-530 -559,-530zm4280 49c-364,0 -580,132 -580,802l0 1243c0,272 -70,503 -217,726 -467,0 -530,244 -530,699l0 712c0,544 147,802 517,802 384,0 531,-251 531,-802l0 -468 2219 0 0 468c0,551 119,802 524,802 391,0 523,-258 523,-802l0 -712c0,-468 -104,-699 -530,-699l0 -1969c0,-635 -223,-802 -586,-802l-1871 0zm1361 942l0 1829 -1110 0c76,-55 182,-397 182,-558l0 -1271 928 0zm2632 -991c-378,0 -545,265 -545,802l0 2207c0,559 188,803 545,803 181,0 306,-57 404,-196l1271 -1766 0 1159c0,559 182,803 545,803 362,0 551,-280 551,-803l0 -2207c0,-558 -202,-802 -551,-802 -189,0 -378,69 -545,321l-1124 1683 0 -1202c0,-558 -196,-802 -551,-802zm4621 1375l0 -579c0,-510 -112,-796 -517,-796 -398,0 -579,265 -579,802l0 2207c0,559 188,803 544,803 377,0 552,-287 552,-810l0 -747 1138 0 0 754c0,559 181,803 544,803 377,0 552,-280 552,-803l0 -2207c0,-558 -182,-802 -538,-802 -377,0 -558,265 -558,802l0 573 -1138 0zm3539 -1375c-376,0 -551,265 -551,802l0 2207c0,537 175,803 551,803 377,0 545,-266 545,-803l0 -992 1103 1466c175,231 363,329 572,329 294,0 517,-189 517,-440 0,-195 -70,-356 -217,-531l-1026 -1208 740 -684c168,-153 280,-356 280,-530 0,-231 -203,-419 -461,-419 -196,0 -363,84 -566,293l-942 970 0 -461c0,-537 -175,-802 -545,-802zm4755 957c397,0 718,397 718,935 0,544 -314,956 -718,956 -405,0 -712,-398 -712,-956 0,-544 313,-935 712,-935zm746 2471c119,265 280,384 524,384 370,0 545,-266 545,-803l0 -2213c0,-538 -168,-796 -545,-796 -223,0 -398,126 -524,349 -223,-265 -502,-398 -879,-398 -935,0 -1711,838 -1711,1955 0,1152 769,1947 1669,1947 377,0 698,-153 921,-425z"/>
   <path class="fil1" d="M3818 10377c-1175,0 -2045,700 -2045,1377 0,258 137,556 475,556 226,0 362,-105 515,-306 194,-258 420,-516 1088,-516 378,0 692,193 692,548 0,410 -241,692 -741,692l-289 0c-314,0 -548,153 -548,523 0,322 161,564 548,564l474 0c548,0 709,362 709,677 0,306 -242,837 -918,837 -958,0 -894,-918 -1586,-918 -378,0 -612,330 -612,531 0,645 773,1498 2287,1498 1256,0 2198,-934 2198,-1852 0,-668 -258,-1183 -983,-1465 492,-242 765,-701 765,-1176 0,-950 -765,-1570 -2029,-1570zm4341 3607l708 -2117 653 2117 -1361 0zm740 -3535c-482,0 -789,274 -998,846l-1490 4042c-48,121 -64,250 -64,378 0,363 257,628 620,628 281,0 507,-225 628,-587l193 -564 2118 0 161 515c137,428 346,636 684,636 362,0 644,-241 644,-611 0,-113 -32,-250 -88,-411l-1449 -4114c-178,-492 -516,-758 -959,-758zm6747 1305l0 3664c0,636 218,925 653,925 459,0 652,-314 652,-925l0 -3954c0,-693 -225,-918 -902,-918l-3205 0c-676,0 -901,225 -901,918l0 3954c0,636 217,925 652,925 459,0 652,-314 652,-925l0 -3664 2399 0zm3625 -8l563 0c604,0 894,234 894,748 0,500 -298,757 -894,757l-563 0 0 -1505zm-403 -1200c-725,0 -902,282 -902,918l0 3954c0,619 210,925 652,925 443,0 653,-306 653,-925l0 -983 877 0c1264,0 1997,-740 1997,-1941 0,-1183 -789,-1948 -2102,-1948l-1175 0zm6570 -169c-1666,0 -2810,1216 -2810,3036 0,1811 1119,3027 2810,3027 1691,0 2810,-1224 2810,-3027 0,-1828 -1143,-3036 -2810,-3036zm0 1248c830,0 1393,669 1393,1804 0,1087 -571,1763 -1393,1763 -821,0 -1393,-676 -1393,-1763 0,-1135 564,-1804 1393,-1804zm4864 3439l0 -3689c0,-620 -193,-926 -653,-926 -434,0 -652,282 -652,926l0 3970c0,612 202,926 652,926l6072 0c451,0 652,-314 652,-926l0 -3970c0,-620 -193,-926 -652,-926 -435,0 -652,282 -652,926l0 3689 -1732 0 0 -3689c0,-620 -193,-926 -652,-926 -434,0 -652,282 -652,926l0 3689 -1731 0zm7391 -4615c-297,0 -668,186 -668,572 0,161 89,427 265,709l1466 2295 -797 1280c-121,185 -177,354 -177,523 0,298 249,515 555,515 379,0 572,-273 830,-764l2118 -3946c128,-234 225,-443 225,-612 0,-402 -225,-572 -491,-572 -378,0 -540,250 -717,612l-894 1828 -1047 -1884c-160,-298 -338,-556 -668,-556zm6917 -72c-1642,0 -2818,1264 -2818,3036 0,1819 1127,3027 2802,3027 1031,0 1803,-378 1803,-990 0,-314 -273,-572 -587,-572 -435,0 -749,314 -1152,314 -732,0 -1247,-483 -1393,-1224l1409 0c629,0 919,-201 919,-595 0,-427 -315,-613 -919,-613l-1385 0c90,-676 677,-1135 1329,-1135 741,0 676,217 1144,217 297,0 563,-225 563,-539 0,-612 -990,-926 -1715,-926zm6047 169c-725,0 -902,282 -902,918l0 3954c0,619 210,925 652,925 443,0 653,-306 653,-925l0 -3664 1062 0c621,0 926,-185 926,-596 0,-411 -305,-612 -926,-612l-1465 0zm4348 1200l564 0c603,0 893,234 893,748 0,500 -298,757 -893,757l-564 0 0 -1505zm-403 -1200c-725,0 -902,282 -902,918l0 3954c0,619 210,925 652,925 443,0 653,-306 653,-925l0 -983 878 0c1263,0 1996,-740 1996,-1941 0,-1183 -789,-1948 -2102,-1948l-1175 0zm6571 -169c-1667,0 -2810,1216 -2810,3036 0,1811 1119,3027 2810,3027 1691,0 2810,-1224 2810,-3027 0,-1828 -1143,-3036 -2810,-3036zm0 1248c829,0 1393,669 1393,1804 0,1087 -572,1763 -1393,1763 -822,0 -1393,-676 -1393,-1763 0,-1135 563,-1804 1393,-1804zm4831 -1176c-556,0 -781,314 -886,918l-700 3905c-32,170 -48,298 -48,395 0,427 265,676 636,676 402,0 603,-265 684,-837l451 -3342 8 0 837 3527c121,492 338,652 766,652 490,0 635,-298 724,-652l886 -3527 8 0 402 3423c57,507 274,756 644,756 387,0 661,-249 661,-676 0,-72 -8,-177 -32,-314l-637 -3937c-104,-637 -346,-967 -917,-967 -476,0 -774,290 -894,790l-813 3430 -870 -3422c-129,-524 -427,-798 -910,-798zm7070 3535l708 -2117 653 2117 -1361 0zm740 -3535c-483,0 -789,274 -998,846l-1490 4042c-48,121 -64,250 -64,378 0,363 257,628 619,628 282,0 508,-225 629,-587l193 -564 2118 0 161 515c137,428 346,636 684,636 362,0 644,-241 644,-611 0,-113 -32,-250 -88,-411l-1449 -4114c-178,-492 -516,-758 -959,-758zm7810 5822l0 717c0,636 226,926 636,926 435,0 629,-298 629,-926l0 -943c0,-781 -419,-981 -805,-981l0 -3600c0,-693 -226,-918 -903,-918l-2415 0c-677,0 -902,225 -902,918l0 1482c0,861 -105,1642 -588,2118 -434,0 -780,346 -780,981l0 943c0,628 200,926 627,926 419,0 636,-290 636,-926l0 -717 3865 0zm-845 -1207l-2230 0c483,-500 579,-1748 579,-2972l0 -338 1651 0 0 3310zm4718 -4518c-1441,0 -2077,749 -2077,1707 0,894 403,1434 1369,1723l-1096 1047c-297,290 -418,556 -418,749 0,314 258,571 556,571 249,0 507,-104 789,-426l1602 -1828 0 1329c0,611 201,925 652,925 435,0 652,-289 652,-925l0 -3954c0,-693 -225,-918 -901,-918l-1128 0zm725 2673l-604 0c-596,0 -829,-289 -829,-789 0,-491 297,-684 813,-684l620 0 0 1473zm3624 -467l0 -1377c0,-620 -210,-926 -653,-926 -442,0 -652,306 -652,926l0 4043c0,619 210,925 652,925 443,0 653,-306 653,-925l0 -1458 2399 0 0 1458c0,619 209,925 653,925 442,0 652,-306 652,-925l0 -4043c0,-620 -210,-926 -652,-926 -444,0 -653,306 -653,926l0 1377 -2399 0zm12094 3519l0 717c0,636 225,926 635,926 436,0 629,-298 629,-926l0 -943c0,-781 -419,-981 -805,-981l0 -3600c0,-693 -226,-918 -903,-918l-2415 0c-676,0 -902,225 -902,918l0 1482c0,861 -104,1642 -588,2118 -434,0 -780,346 -780,981l0 943c0,628 201,926 628,926 418,0 636,-290 636,-926l0 -717 3865 0zm-846 -1207l-2230 0c483,-500 579,-1748 579,-2972l0 -338 1651 0 0 3310zm5306 -4687c-1666,0 -2810,1216 -2810,3036 0,1811 1119,3027 2810,3027 1691,0 2810,-1224 2810,-3027 0,-1828 -1143,-3036 -2810,-3036zm0 1248c830,0 1393,669 1393,1804 0,1087 -571,1763 -1393,1763 -821,0 -1393,-676 -1393,-1763 0,-1135 564,-1804 1393,-1804zm8109 -1248c-1176,0 -2046,700 -2046,1377 0,258 137,556 475,556 226,0 362,-105 516,-306 193,-258 419,-516 1087,-516 378,0 692,193 692,548 0,410 -241,692 -740,692l-290 0c-314,0 -548,153 -548,523 0,322 161,564 548,564l474 0c548,0 709,362 709,677 0,306 -242,837 -918,837 -958,0 -894,-918 -1586,-918 -378,0 -612,330 -612,531 0,645 773,1498 2287,1498 1256,0 2198,-934 2198,-1852 0,-668 -258,-1183 -983,-1465 492,-242 765,-701 765,-1176 0,-950 -765,-1570 -2028,-1570zm3897 169c-725,0 -902,282 -902,918l0 3986c0,620 194,821 886,821l1288 0c1328,0 2037,-676 2037,-1723 0,-749 -410,-1264 -1159,-1449 483,-210 708,-572 708,-1127 0,-863 -612,-1426 -1787,-1426l-1071 0zm403 3317l628 0c603,0 909,194 909,645 0,410 -306,652 -893,652l-644 0 0 -1297zm0 -2206l531 0c403,0 660,218 660,564 0,322 -249,555 -644,555l-547 0 0 -1119zm4960 97l1062 0c621,0 927,-185 927,-596 0,-411 -306,-612 -927,-612l-1465 0c-725,0 -902,282 -902,918l0 3986c0,620 194,821 886,821l1521 0c621,0 927,-193 927,-604 0,-411 -306,-603 -927,-603l-1102 0 0 -1071 918 0c619,0 925,-194 925,-604 0,-411 -306,-605 -925,-605l-918 0 0 -1030zm7529 4517l0 717c0,636 225,926 635,926 436,0 629,-298 629,-926l0 -943c0,-781 -419,-981 -805,-981l0 -3600c0,-693 -226,-918 -903,-918l-2415 0c-677,0 -902,225 -902,918l0 1482c0,861 -105,1642 -588,2118 -434,0 -780,346 -780,981l0 943c0,628 200,926 628,926 418,0 635,-290 635,-926l0 -717 3866 0zm-846 -1207l-2230 0c483,-500 579,-1748 579,-2972l0 -338 1651 0 0 3310zm4067 -3310l1062 0c621,0 926,-185 926,-596 0,-411 -305,-612 -926,-612l-1465 0c-725,0 -902,282 -902,918l0 3986c0,620 193,821 886,821l1521 0c621,0 927,-193 927,-604 0,-411 -306,-603 -927,-603l-1102 0 0 -1071 917 0c620,0 926,-194 926,-604 0,-411 -306,-605 -926,-605l-917 0 0 -1030zm4066 998l0 -1377c0,-620 -209,-926 -652,-926 -443,0 -652,306 -652,926l0 4043c0,619 209,925 652,925 443,0 652,-306 652,-925l0 -1458 2399 0 0 1458c0,619 210,925 653,925 442,0 652,-306 652,-925l0 -4043c0,-620 -210,-926 -652,-926 -443,0 -653,306 -653,926l0 1377 -2399 0zm6023 0l0 -1377c0,-620 -209,-926 -652,-926 -443,0 -652,306 -652,926l0 4043c0,619 209,925 652,925 443,0 652,-306 652,-925l0 -1458 2399 0 0 1458c0,619 210,925 653,925 443,0 652,-306 652,-925l0 -4043c0,-620 -209,-926 -652,-926 -443,0 -653,306 -653,926l0 1377 -2399 0zm6676 -2206c-1442,0 -2078,749 -2078,1707 0,894 403,1434 1369,1723l-1096 1047c-297,290 -418,556 -418,749 0,314 258,571 556,571 249,0 507,-104 789,-426l1602 -1828 0 1329c0,611 201,925 652,925 435,0 652,-289 652,-925l0 -3954c0,-693 -225,-918 -901,-918l-1127 0zm724 2673l-604 0c-596,0 -829,-289 -829,-789 0,-491 297,-684 813,-684l620 0 0 1473zm-131408 7915c-620,0 -926,194 -926,605 0,394 306,603 878,603l128 0 0 3648c0,620 202,926 653,926 451,0 652,-306 652,-926l0 -3929c0,-645 -185,-927 -733,-927l-652 0zm2979 2931c-410,0 -636,202 -636,548 0,346 226,540 628,540l1634 0c420,0 636,-178 636,-532 0,-338 -224,-556 -627,-556l-1635 0zm3752 1490c-233,0 -403,145 -564,443l-636 1159c-88,154 -128,290 -128,403 0,290 249,507 531,507 209,0 402,-145 564,-442l636 -1160c80,-153 128,-290 128,-411 0,-290 -241,-499 -531,-499zm5507 -4581c-1144,0 -1940,933 -1940,1795 0,403 265,669 644,669 684,0 587,-1257 1255,-1257 274,0 492,226 492,556 0,451 -532,1095 -1449,2110 -644,708 -1039,1087 -1039,1409 0,410 257,603 781,603l2311 0c620,0 926,-193 926,-603 0,-411 -306,-604 -926,-604l-1200 0c1248,-1241 1981,-2062 1981,-2980 0,-958 -716,-1698 -1836,-1698zm3051 3091c-410,0 -636,202 -636,548 0,346 226,540 628,540l1635 0c419,0 636,-178 636,-532 0,-338 -225,-556 -628,-556l-1635 0zm3752 1490c-233,0 -402,145 -563,443l-636 1159c-89,154 -129,290 -129,403 0,290 249,507 532,507 208,0 402,-145 563,-442l636 -1160c81,-153 129,-290 129,-411 0,-290 -242,-499 -532,-499zm5491 -4581c-1014,0 -1851,732 -1851,1368 0,314 257,548 539,548 612,0 708,-709 1288,-709 290,0 475,194 475,491 0,298 -193,492 -603,588 -387,88 -548,226 -548,572 0,370 161,515 548,579 547,90 829,218 829,677 0,419 -306,732 -693,732 -764,0 -772,-997 -1433,-997 -338,0 -572,249 -572,619 0,725 935,1587 1989,1587 1200,0 2062,-822 2062,-1852 0,-660 -330,-1136 -967,-1466 443,-322 653,-685 653,-1176 0,-861 -717,-1561 -1716,-1561zm3237 3091c-410,0 -636,202 -636,548 0,346 226,540 628,540l1635 0c419,0 636,-178 636,-532 0,-338 -225,-556 -628,-556l-1635 0zm3696 -3027c-442,0 -652,306 -652,925l0 4043c0,620 210,926 652,926 443,0 653,-306 653,-926l0 -1691 1956 2158c241,266 419,459 700,459 298,0 604,-266 604,-604 0,-178 -112,-402 -330,-644l-1747 -1900 1441 -1507c218,-224 330,-434 330,-644 0,-321 -274,-595 -587,-595 -234,0 -427,169 -676,451l-1691 1916 0 -1442c0,-619 -210,-925 -653,-925zm5145 0c-443,0 -652,306 -652,925l0 4043c0,620 209,926 652,926 443,0 652,-306 652,-926l0 -4043c0,-619 -209,-925 -652,-925zm2971 0c-555,0 -780,314 -885,917l-700 3906c-33,169 -49,298 -49,395 0,426 265,676 636,676 402,0 604,-266 684,-838l451 -3341 9 0 837 3527c120,491 338,652 765,652 491,0 636,-298 724,-652l887 -3527 8 0 402 3422c56,507 274,757 644,757 387,0 661,-250 661,-676 0,-73 -8,-178 -33,-314l-636 -3938c-105,-636 -346,-966 -918,-966 -475,0 -773,290 -894,789l-813 3430 -869 -3422c-130,-523 -427,-797 -911,-797zm7030 2302l0 -1377c0,-619 -209,-925 -653,-925 -442,0 -652,306 -652,925l0 4043c0,620 210,926 652,926 444,0 653,-306 653,-926l0 -1457 2399 0 0 1457c0,620 210,926 653,926 442,0 652,-306 652,-926l0 -4043c0,-619 -210,-925 -652,-925 -443,0 -653,306 -653,925l0 1377 -2399 0zm6063 1233l709 -2118 652 2118 -1361 0zm741 -3535c-483,0 -789,274 -998,845l-1490 4043c-49,120 -65,249 -65,378 0,362 258,628 620,628 282,0 508,-226 629,-588l193 -564 2118 0 161 516c136,427 346,636 684,636 362,0 644,-242 644,-612 0,-113 -32,-250 -88,-410l-1450 -4115c-177,-491 -515,-757 -958,-757zm3462 96c-620,0 -926,202 -926,613 0,410 306,595 926,595l483 0 0 3664c0,620 210,926 652,926 443,0 653,-306 653,-926l0 -3664 483 0c620,0 926,-185 926,-595 0,-411 -306,-613 -926,-613l-2271 0zm5009 2206l0 -1377c0,-619 -210,-925 -653,-925 -442,0 -652,306 -652,925l0 4043c0,620 210,926 652,926 443,0 653,-306 653,-926l0 -1457 2399 0 0 1457c0,620 209,926 653,926 442,0 652,-306 652,-926l0 -4043c0,-619 -210,-925 -652,-925 -444,0 -653,306 -653,925l0 1377 -2399 0zm5370 -2302c-442,0 -652,306 -652,925l0 4187c0,540 177,782 596,782 274,0 508,-121 749,-443l2359 -3116 0 2633c0,620 210,926 653,926 442,0 652,-306 652,-926l0 -4067c0,-571 -178,-901 -596,-901 -282,0 -491,177 -701,451l-2407 3180 0 -2706c0,-619 -209,-925 -653,-925zm5847 0c-379,0 -637,290 -637,612 0,209 121,411 290,644l1047 1466 -1393 1940c-169,242 -290,426 -290,660 0,282 274,572 588,572 250,0 459,-177 685,-500l1151 -1618 1159 1626c234,331 443,492 709,492 322,0 596,-274 596,-564 0,-218 -113,-394 -298,-660l-1393 -1965 1054 -1466c170,-240 290,-434 290,-660 0,-281 -282,-579 -571,-579 -234,0 -459,177 -693,507l-821 1143 -805 -1127c-250,-346 -443,-523 -668,-523zm7673 0c-442,0 -652,306 -652,925l0 4043c0,620 210,926 652,926 443,0 653,-306 653,-926l0 -1691 1956 2158c241,266 419,459 700,459 298,0 604,-266 604,-604 0,-178 -112,-402 -330,-644l-1747 -1900 1441 -1507c218,-224 330,-434 330,-644 0,-321 -274,-595 -587,-595 -234,0 -427,169 -676,451l-1691 1916 0 -1442c0,-619 -210,-925 -653,-925zm5362 96c-725,0 -901,282 -901,919l0 3985c0,620 193,821 885,821l1289 0c1328,0 2037,-676 2037,-1723 0,-749 -410,-1264 -1160,-1449 484,-209 709,-571 709,-1127 0,-862 -612,-1426 -1788,-1426l-1071 0zm403 3318l628 0c604,0 910,193 910,644 0,411 -306,652 -894,652l-644 0 0 -1296zm0 -2207l531 0c403,0 661,218 661,564 0,323 -250,555 -645,555l-547 0 0 -1119zm5001 2328l708 -2118 653 2118 -1361 0zm740 -3535c-483,0 -789,274 -998,845l-1490 4043c-48,120 -64,249 -64,378 0,362 257,628 619,628 282,0 508,-226 629,-588l193 -564 2118 0 161 516c137,427 346,636 684,636 362,0 644,-242 644,-612 0,-113 -32,-250 -88,-410l-1449 -4115c-178,-491 -516,-757 -959,-757zm4348 1296l564 0c604,0 894,234 894,749 0,499 -298,757 -894,757l-564 0 0 -1506zm-403 -1200c-725,0 -901,282 -901,919l0 3953c0,620 209,926 652,926 443,0 652,-306 652,-926l0 -983 878 0c1264,0 1997,-740 1997,-1940 0,-1184 -790,-1949 -2102,-1949l-1176 0zm4445 0c-620,0 -926,202 -926,613 0,410 306,595 926,595l483 0 0 3664c0,620 210,926 652,926 443,0 653,-306 653,-926l0 -3664 483 0c620,0 926,-185 926,-595 0,-411 -306,-613 -926,-613l-2271 0zm4356 -96c-442,0 -652,306 -652,925l0 4187c0,540 177,782 596,782 274,0 508,-121 749,-443l2359 -3116 0 2633c0,620 210,926 653,926 442,0 652,-306 652,-926l0 -4067c0,-571 -178,-901 -596,-901 -282,0 -491,177 -701,451l-2407 3180 0 -2706c0,-619 -209,-925 -653,-925zm6676 1296l564 0c604,0 894,234 894,749 0,499 -298,757 -894,757l-564 0 0 -1506zm-403 -1200c-725,0 -901,282 -901,919l0 3953c0,620 209,926 652,926 443,0 652,-306 652,-926l0 -983 878 0c1264,0 1997,-740 1997,-1940 0,-1184 -790,-1949 -2102,-1949l-1176 0z"/>
   <path class="fil0" d="M69617 32598c-280,0 -517,265 -517,551 0,147 77,308 210,447l767 782 -914 1006c-140,153 -230,265 -230,481 0,307 251,545 530,545 182,0 314,-98 475,-287l782 -935 788 935c161,189 300,287 503,287 279,0 503,-238 503,-510 0,-251 -119,-391 -258,-545l-859 -970 726 -775c161,-174 244,-335 244,-475 0,-293 -258,-537 -565,-537 -140,0 -315,90 -447,251l-614 754 -671 -775c-139,-161 -286,-230 -453,-230zm3951 2631c-202,0 -349,126 -489,385l-551 1005c-76,133 -112,251 -112,349 0,251 217,440 461,440 182,0 349,-126 489,-384l552 -1005c69,-133 111,-252 111,-357 0,-251 -209,-433 -461,-433zm6583 482l0 -2311c0,-516 -147,-802 -656,-802l-1396 0c-712,0 -1236,405 -1236,1026 0,607 314,929 838,1068l-607 614c-203,210 -349,420 -349,636 0,258 202,468 432,468 168,0 356,-84 524,-287l977 -1208 377 0 0 796c0,349 161,699 537,699 370,0 559,-244 559,-699zm-1096 -1480l-593 0c-419,0 -503,-244 -503,-425 0,-196 84,-406 503,-406l593 0 0 831zm2402 -1633c-377,0 -551,265 -551,802l0 2207c0,537 174,803 551,803 377,0 545,-266 545,-803l0 -992 1102 1466c175,231 364,329 573,329 293,0 517,-189 517,-440 0,-195 -70,-356 -217,-531l-1026 -1208 740 -684c168,-153 279,-356 279,-530 0,-231 -203,-419 -460,-419 -196,0 -363,84 -566,293l-942 970 0 -461c0,-537 -175,-802 -545,-802zm3700 0c-377,0 -552,258 -552,796l0 2213c0,537 175,803 552,803 377,0 544,-266 544,-803l0 -2213c0,-538 -174,-796 -544,-796zm0 -1571c-349,0 -635,280 -635,629 0,355 279,635 635,635 349,0 628,-280 628,-635 0,-349 -279,-629 -628,-629l0 0zm7316 3477c0,-1340 -796,-1955 -1717,-1955 -629,0 -1019,321 -1306,691 0,-970 544,-1187 1166,-1361 614,-175 1158,-279 1549,-531 217,-147 308,-335 308,-516 0,-245 -202,-475 -454,-475 -105,0 -223,28 -342,90 -502,252 -1222,266 -1940,769 -859,600 -985,1585 -985,2611l0 677c0,1263 796,1947 1864,1947 1096,0 1857,-810 1857,-1947zm-1857 -949c495,0 726,439 726,935 0,572 -301,956 -726,956 -440,0 -733,-404 -733,-956 0,-663 314,-935 733,-935l0 0zm2604 -957c-301,0 -538,237 -538,545 0,90 14,202 63,306l1110 2591 -454 984c-63,140 -91,258 -91,377 0,321 203,530 545,530 244,0 363,-160 481,-446l1676 -3979c63,-147 91,-287 91,-384 0,-321 -210,-524 -545,-524 -223,0 -363,139 -481,440l-678 1752 -621 -1662c-126,-342 -251,-530 -558,-530zm4280 49c-364,0 -580,132 -580,802l0 1243c0,272 -70,503 -217,726 -467,0 -530,244 -530,699l0 712c0,544 146,802 517,802 383,0 530,-251 530,-802l0 -468 2220 0 0 468c0,551 119,802 524,802 391,0 523,-258 523,-802l0 -712c0,-468 -104,-699 -531,-699l0 -1969c0,-635 -223,-802 -586,-802l-1870 0zm1361 942l0 1829 -1110 0c76,-55 181,-397 181,-558l0 -1271 929 0zm2282 -991c-300,0 -538,237 -538,545 0,90 15,202 64,306l1109 2591 -453 984c-63,140 -91,258 -91,377 0,321 202,530 544,530 245,0 363,-160 482,-446l1676 -3979c62,-147 90,-287 90,-384 0,-321 -209,-524 -544,-524 -223,0 -363,139 -482,440l-677 1752 -621 -1662c-126,-342 -251,-530 -559,-530zm4392 1445l0 -643c0,-509 -119,-802 -517,-802 -398,0 -579,265 -579,802l0 2207c0,559 188,803 544,803 377,0 552,-280 552,-803l0 -684 509 0c154,1033 914,1528 1815,1528 1096,0 1857,-810 1857,-1947 0,-1159 -775,-1955 -1857,-1955 -914,0 -1661,600 -1815,1494l-509 0zm2324 -488c426,0 726,348 726,935 0,572 -307,956 -733,956 -446,0 -719,-404 -719,-956 0,-559 286,-935 726,-935zm2723 -908c-440,0 -622,126 -622,468 0,306 154,474 635,474l489 0 0 2018c0,559 195,803 558,803 378,0 538,-259 538,-803l0 -2018 461 0c482,0 671,-168 671,-474 0,-342 -189,-468 -664,-468l-2066 0zm3727 -49c-376,0 -550,265 -550,802l0 2171c0,559 208,790 550,790l1139 0c1012,0 1647,-559 1647,-1334 0,-677 -405,-1187 -1654,-1187l-586 0 0 -440c0,-558 -189,-802 -546,-802zm546 2024l607 0c321,0 538,98 538,412 0,259 -155,447 -538,447l-607 0 0 -859zm4481 -2073c-1152,0 -1892,817 -1892,1955 0,1165 747,1947 1822,1947 768,0 1291,-314 1291,-697 0,-259 -174,-476 -425,-476 -182,0 -433,168 -754,168 -503,0 -803,-363 -803,-935 0,-565 314,-956 761,-956 314,0 573,167 775,167 265,0 454,-203 454,-468 0,-412 -489,-705 -1229,-705zm5019 3162l0 -2311c0,-516 -147,-802 -656,-802l-1396 0c-712,0 -1236,405 -1236,1026 0,607 314,929 838,1068l-607 614c-203,210 -350,420 -350,636 0,258 203,468 433,468 168,0 356,-84 524,-287l977 -1208 377 0 0 796c0,349 161,699 537,699 370,0 559,-244 559,-699zm-1096 -1480l-593 0c-419,0 -503,-244 -503,-425 0,-196 84,-406 503,-406l593 0 0 831zm7009 -3204c-384,0 -544,223 -544,803l0 1096c-202,-223 -503,-377 -873,-377 -942,0 -1683,824 -1683,1941 0,1089 741,1961 1683,1961 321,0 601,-69 873,-293l0 936c0,565 181,803 544,803 391,0 552,-266 552,-803l0 -936c265,224 544,293 865,293 950,0 1690,-858 1690,-1947 0,-1110 -740,-1955 -1676,-1955 -369,0 -677,154 -879,377l0 -1096c0,-601 -189,-803 -552,-803zm1257 2528c425,0 719,432 719,963 0,573 -294,928 -719,928 -440,0 -705,-384 -705,-928 0,-545 286,-963 705,-963zm-2506 0c426,0 705,418 705,963 0,544 -266,928 -712,928 -427,0 -712,-349 -712,-935 0,-538 293,-956 719,-956zm5494 -957c-377,0 -552,258 -552,796l0 2213c0,537 175,803 552,803 377,0 544,-266 544,-803l0 -2213c0,-538 -174,-796 -544,-796zm0 -1571c-349,0 -635,280 -635,629 0,355 279,635 635,635 349,0 628,-280 628,-635 0,-349 -279,-629 -628,-629l0 0zm2409 1892c-134,-237 -308,-321 -525,-321 -376,0 -550,230 -550,768l0 3700c0,538 174,802 550,802 378,0 546,-264 546,-802l0 -943c251,217 537,328 872,328 921,0 1690,-865 1690,-1976 0,-1130 -754,-1926 -1676,-1926 -377,0 -684,126 -907,370l0 0zm733 636c404,0 718,376 718,935 0,572 -300,956 -718,956 -419,0 -712,-370 -712,-950 0,-572 306,-941 712,-941zm3148 -957c-357,0 -580,175 -629,802l-153 1948c-14,189 -28,363 -28,412 0,426 160,650 489,650 363,0 551,-238 600,-803l97 -1138 797 1473c132,244 342,468 523,468 182,0 398,-196 524,-433l810 -1508 91 1138c41,551 236,803 599,803 329,0 489,-224 489,-656 0,-49 -13,-252 -28,-412l-146 -1942c-49,-676 -279,-802 -636,-802 -188,0 -384,77 -516,321l-1152 2080 -1166 -2003c-181,-314 -377,-398 -565,-398zm6562 -49c-1083,0 -1865,810 -1865,1955 0,1145 782,1947 1865,1947 1088,0 1857,-802 1857,-1947 0,-1145 -769,-1955 -1857,-1955zm0 1006c404,0 725,376 725,935 0,572 -306,956 -725,956 -419,0 -733,-370 -733,-950 0,-572 328,-941 733,-941zm3504 488l0 -643c0,-509 -119,-802 -517,-802 -397,0 -579,265 -579,802l0 2207c0,559 188,803 545,803 376,0 551,-280 551,-803l0 -684 509 0c154,1033 915,1528 1816,1528 1096,0 1857,-810 1857,-1947 0,-1159 -775,-1955 -1857,-1955 -915,0 -1662,600 -1816,1494l-509 0zm2325 -488c425,0 725,348 725,935 0,572 -306,956 -733,956 -446,0 -718,-404 -718,-956 0,-559 286,-935 726,-935z"/>
  </g>
 </g>
</svg>
