<?xml version="1.0" encoding="UTF-8"?>
<!DOCTYPE svg PUBLIC "-//W3C//DTD SVG 1.1//EN" "http://www.w3.org/Graphics/SVG/1.1/DTD/svg11.dtd">
<!-- Creator: CorelDRAW X7 -->
<svg xmlns="http://www.w3.org/2000/svg" xml:space="preserve" width="8.9372mm" height="0.7398mm" version="1.1" style="shape-rendering:geometricPrecision; text-rendering:geometricPrecision; image-rendering:optimizeQuality; fill-rule:evenodd; clip-rule:evenodd"
viewBox="0 0 7073 586"
 xmlns:xlink="http://www.w3.org/1999/xlink">
 <defs>
  <style type="text/css">
   <![CDATA[
    .fil0 {fill:#2B2A29;fill-rule:nonzero}
   ]]>
  </style>
 </defs>
 <g id="Layer_x0020_1">
  <metadata id="CorelCorpID_0Corel-Layer"/>
  <polygon class="fil0" points="0,125 0,466 97,466 97,323 202,323 202,466 299,466 299,125 202,125 202,253 97,253 97,125 "/>
  <path id="1" class="fil0" d="M464 230c4,-19 15,-30 24,-35 14,-9 30,-10 43,-10 10,0 35,1 47,15 10,11 10,31 10,41l0 7 -31 1c-27,2 -86,7 -123,22 -56,24 -71,65 -71,99 0,31 13,59 34,77 22,18 53,26 84,26 69,0 99,-38 111,-61 1,23 3,41 5,54l95 0c-6,-20 -10,-46 -10,-73l0 -132c0,-26 1,-55 -12,-83 -24,-53 -80,-60 -135,-60 -43,0 -77,6 -103,21 -18,11 -47,34 -58,81l90 10zm124 72l0 18c0,39 -15,59 -17,61 -13,16 -36,25 -56,25 -13,0 -27,-3 -36,-11 -7,-5 -14,-15 -14,-30 0,-14 5,-24 10,-31 19,-23 51,-27 84,-29l29 -3z"/>
  <path id="2" class="fil0" d="M918 125l0 341 200 0c23,0 52,-2 77,-21 21,-16 36,-43 36,-75 0,-34 -17,-52 -24,-59 -16,-16 -38,-24 -59,-25l0 -1c34,-6 66,-31 66,-78 0,-33 -17,-54 -33,-65 -21,-15 -50,-17 -74,-17l-189 0zm97 57l52 0c11,0 24,0 35,8 9,7 14,18 14,30 0,13 -5,24 -13,31 -11,11 -26,12 -38,12l-50 0 0 -81zm0 138l60 0c17,0 30,4 37,10 10,8 17,20 17,34 0,12 -5,25 -13,33 -6,6 -18,12 -39,12l-62 0 0 -89z"/>
  <path id="3" class="fil0" d="M1581 125l-75 0 -71 213 -68 -213 -107 0 122 337 -1 8c-3,11 -10,26 -19,32 -10,8 -26,9 -36,9 -15,0 -34,-2 -49,-5l0 74c17,3 39,6 55,6 30,0 53,-5 76,-25 25,-21 35,-46 44,-69l129 -367z"/>
  <path id="4" class="fil0" d="M1666 125l0 25c0,44 -1,60 -2,93 -4,74 -9,105 -19,123 -13,23 -32,28 -44,29 -3,0 -5,0 -8,0l0 71c9,2 16,3 25,3 39,0 70,-20 87,-45 33,-46 34,-131 37,-229l69 0 0 271 97 0 0 -341 -242 0z"/>
  <polygon id="5" class="fil0" points="1988,362 1988,466 2092,466 2092,362 "/>
  <path id="6" class="fil0" d="M2329 7l0 459 104 0 0 -198 39 0c20,0 40,1 54,20 4,5 9,15 17,44l11 41c6,20 15,48 21,62 13,26 27,31 35,31l96 0c-12,-13 -19,-26 -27,-45 -12,-29 -18,-54 -28,-87 -13,-41 -26,-77 -56,-98 -9,-6 -22,-11 -35,-13l0 -3c10,-1 21,-5 32,-14 19,-17 27,-43 33,-63l11 -38c12,-42 23,-63 30,-75 5,-9 9,-15 19,-23l-81 0c-11,0 -21,3 -32,16 -13,15 -20,35 -26,53l-12 43c-8,27 -13,50 -34,63 -12,7 -24,8 -34,8l-33 0 0 -183 -104 0z"/>
  <path id="7" class="fil0" d="M2837 230c4,-19 15,-30 23,-35 14,-9 30,-10 44,-10 10,0 34,1 47,15 9,11 10,31 10,41l0 7 -32 1c-26,2 -86,7 -122,22 -57,24 -71,65 -71,99 0,31 13,59 33,77 22,18 53,26 84,26 69,0 99,-38 111,-61 1,23 3,41 6,54l94 0c-6,-20 -10,-46 -10,-73l0 -132c0,-26 2,-55 -11,-83 -25,-53 -80,-60 -135,-60 -43,0 -78,6 -104,21 -18,11 -47,34 -57,81l90 10zm124 72l0 18c0,39 -16,59 -18,61 -13,16 -36,25 -56,25 -12,0 -26,-3 -35,-11 -7,-5 -15,-15 -15,-30 0,-14 6,-24 11,-31 18,-23 51,-27 83,-29l30 -3z"/>
  <path id="8" class="fil0" d="M3235 576l0 -153c20,33 50,50 90,50 65,0 129,-52 129,-181 0,-101 -44,-174 -125,-174 -42,0 -81,21 -101,62l0 -55 -90 0 0 451 97 0zm0 -320c0,-41 22,-71 57,-71 37,0 60,31 60,109 0,58 -12,112 -60,112 -35,0 -57,-29 -57,-76l0 -74z"/>
  <path id="9" class="fil0" d="M3518 125l0 341 75 0 0 -227c0,-5 -1,-11 -2,-40 11,27 11,32 14,41l77 226 55 0 73 -226c2,-6 5,-14 15,-41 0,9 0,14 -1,19 -1,6 -1,10 -1,23l0 225 88 0 0 -341 -124 0 -70 210 -72 -210 -127 0z"/>
  <path id="10" class="fil0" d="M4211 353c-2,13 -8,25 -16,34 -9,9 -25,19 -49,19 -31,0 -49,-17 -59,-36 -8,-15 -12,-36 -11,-54l230 0 0 -18c0,-57 -18,-98 -39,-123 -22,-28 -62,-57 -125,-57 -29,0 -71,5 -109,38 -26,23 -59,65 -59,140 0,64 25,106 48,129 24,26 65,48 120,48 44,0 80,-12 106,-31 19,-14 44,-39 55,-80l-92 -9zm-135 -94c0,-21 7,-41 18,-53 12,-12 29,-21 50,-21 25,0 40,13 49,25 9,14 14,33 13,49l-130 0z"/>
  <path id="11" class="fil0" d="M4410 125l0 25c0,44 -1,60 -2,93 -4,74 -9,105 -19,123 -13,23 -32,28 -44,29 -3,0 -5,0 -8,0l0 71c9,2 17,3 25,3 39,0 70,-20 87,-45 33,-46 34,-131 38,-229l68 0 0 271 97 0 0 -341 -242 0z"/>
  <path id="12" class="fil0" d="M4734 125l0 341 97 0 0 -142 39 0c6,44 26,81 51,105 23,23 60,44 114,44 60,0 97,-27 113,-44 31,-30 52,-79 52,-134 0,-72 -34,-114 -50,-130 -38,-39 -82,-47 -115,-47 -33,0 -77,8 -115,47 -11,11 -36,40 -46,88l-43 0 0 -128 -97 0zm301 281c-18,0 -36,-7 -48,-29 -8,-14 -15,-36 -15,-82 0,-26 1,-59 17,-83 11,-18 25,-27 46,-27 21,0 35,9 46,27 16,24 17,57 17,83 0,46 -7,68 -15,82 -12,22 -30,29 -48,29z"/>
  <path id="13" class="fil0" d="M5262 125l0 341 98 0 0 -143 29 0c20,0 33,5 43,31l5 12c6,15 7,24 16,51 12,35 21,45 36,49l91 0c-11,-14 -15,-23 -21,-39 -9,-20 -13,-30 -22,-57 -9,-26 -15,-42 -23,-55 -14,-21 -32,-30 -50,-33l0 -1c33,-3 46,-24 54,-46 6,-15 16,-51 26,-74 6,-12 15,-25 26,-36l-81 0c-8,1 -21,6 -31,24 -12,24 -12,47 -25,77 -7,16 -19,30 -47,30l-26 0 0 -131 -98 0z"/>
  <path id="14" class="fil0" d="M5713 230c4,-19 15,-30 24,-35 13,-9 30,-10 43,-10 10,0 35,1 47,15 9,11 10,31 10,41l0 7 -31 1c-27,2 -86,7 -123,22 -57,24 -71,65 -71,99 0,31 13,59 34,77 22,18 53,26 84,26 69,0 99,-38 111,-61 1,23 3,41 5,54l95 0c-6,-20 -10,-46 -10,-73l0 -132c0,-26 1,-55 -12,-83 -25,-53 -80,-60 -135,-60 -43,0 -77,6 -103,21 -18,11 -47,34 -58,81l90 10zm124 72l0 18c0,39 -16,59 -17,61 -14,16 -36,25 -56,25 -13,0 -27,-3 -36,-11 -7,-5 -14,-15 -14,-30 0,-14 5,-24 10,-31 19,-23 51,-27 84,-29l29 -3z"/>
  <polygon id="15" class="fil0" points="6116,362 6012,362 6012,466 6058,466 6011,571 6054,571 6116,458 "/>
  <path id="16" class="fil0" d="M6426 170c1,-13 4,-36 14,-53 10,-17 30,-37 62,-37 19,0 36,7 48,18 13,13 19,32 19,49 0,46 -39,85 -67,108l-165 129 0 82 331 0 4 -85 -203 0 127 -100c17,-14 74,-63 74,-137 0,-35 -11,-76 -48,-107 -33,-28 -72,-37 -113,-37 -75,0 -118,36 -139,66 -18,25 -29,56 -33,84l89 20z"/>
  <path id="17" class="fil0" d="M6961 7l-75 0c-18,25 -36,40 -58,54 -25,15 -50,27 -75,35l0 86c32,-12 56,-25 108,-60l0 259 -119 0 0 85 331 0 0 -85 -112 0 0 -374z"/>
 </g>
</svg>
