<?xml version="1.0" encoding="UTF-8"?>
<!DOCTYPE svg PUBLIC "-//W3C//DTD SVG 1.1//EN" "http://www.w3.org/Graphics/SVG/1.1/DTD/svg11.dtd">
<!-- Creator: CorelDRAW X7 -->
<svg xmlns="http://www.w3.org/2000/svg" xml:space="preserve" width="9.5252mm" height="1.6479mm" version="1.1" style="shape-rendering:geometricPrecision; text-rendering:geometricPrecision; image-rendering:optimizeQuality; fill-rule:evenodd; clip-rule:evenodd"
viewBox="0 0 8109 1403"
 xmlns:xlink="http://www.w3.org/1999/xlink">
 <defs>
  <style type="text/css">
   <![CDATA[
    .fil0 {fill:#2B2A29;fill-rule:nonzero}
   ]]>
  </style>
 </defs>
 <g id="Layer_x0020_1">
  <metadata id="CorelCorpID_0Corel-Layer"/>
  <polygon class="fil0" points="0,131 0,499 107,499 107,344 223,344 223,499 331,499 331,131 223,131 223,269 107,269 107,131 "/>
  <path id="1" class="fil0" d="M513 244c4,-20 17,-31 26,-37 15,-10 33,-11 48,-11 11,0 38,1 52,17 10,11 11,33 11,43l0 8 -35 1c-29,2 -95,7 -135,24 -63,26 -79,70 -79,107 0,33 15,63 38,82 24,19 58,28 92,28 76,0 110,-41 123,-66 1,25 3,44 6,59l104 0c-6,-23 -10,-50 -10,-80l0 -142c0,-27 1,-59 -13,-88 -28,-57 -89,-65 -149,-65 -48,0 -86,6 -115,23 -19,12 -52,37 -63,86l99 11zm137 78l0 20c0,41 -17,63 -20,65 -14,17 -39,27 -61,27 -14,0 -29,-4 -39,-12 -8,-6 -16,-16 -16,-32 0,-15 5,-26 11,-33 20,-26 56,-29 92,-32l33 -3z"/>
  <path id="2" class="fil0" d="M1121 617l0 -165c22,36 56,54 100,54 71,0 142,-56 142,-195 0,-109 -48,-187 -138,-187 -46,0 -89,23 -112,66l0 -59 -99 0 0 486 107 0zm0 -345c0,-44 25,-76 63,-76 41,0 67,34 67,117 0,62 -14,121 -67,121 -39,0 -63,-31 -63,-82l0 -80z"/>
  <path id="3" class="fil0" d="M1412 314c0,59 23,112 58,145 25,24 66,47 125,47 58,0 99,-23 124,-47 35,-33 58,-86 58,-145 0,-77 -38,-122 -55,-140 -42,-41 -91,-50 -127,-50 -36,0 -85,9 -128,50 -17,18 -55,63 -55,140zm183 120c-20,0 -40,-7 -54,-31 -8,-15 -16,-39 -16,-89 0,-27 1,-63 18,-89 13,-20 29,-29 52,-29 23,0 39,9 51,29 17,26 19,62 19,89 0,50 -8,74 -17,89 -14,24 -34,31 -53,31z"/>
  <path id="4" class="fil0" d="M1917 253c4,-20 16,-33 22,-39 11,-9 28,-18 54,-18 14,0 25,2 37,11 11,6 16,14 16,28 0,22 -15,32 -18,34 -10,6 -30,11 -41,11l-36 0 0 61 36 0c17,0 37,3 49,12 13,9 15,22 15,33 0,16 -5,27 -18,35 -13,8 -31,13 -45,13 -22,0 -42,-8 -55,-21 -6,-7 -14,-18 -16,-36l-95 15c6,38 28,66 49,82 37,28 85,32 125,32 47,0 87,-7 115,-25 33,-20 52,-55 52,-88 0,-23 -9,-46 -24,-61 -13,-14 -36,-23 -56,-26l0 -1c22,-3 39,-12 51,-24 11,-11 23,-30 23,-58 0,-47 -36,-69 -60,-80 -30,-14 -62,-19 -99,-19 -29,0 -78,4 -117,32 -39,27 -50,63 -54,79l90 18z"/>
  <path id="5" class="fil0" d="M2353 131l-107 0 0 368 107 0 0 -368zm2 -131l-110 0 0 84 110 0 0 -84z"/>
  <polygon id="6" class="fil0" points="2618,4 2618,499 2734,499 2734,95 2938,95 2938,4 "/>
  <path id="7" class="fil0" d="M3231 377c-3,14 -9,27 -18,36 -10,10 -27,21 -54,21 -35,0 -55,-18 -66,-39 -8,-16 -13,-38 -12,-58l254 0 0 -19c0,-62 -20,-106 -42,-133 -25,-29 -69,-61 -138,-61 -33,0 -79,5 -121,41 -29,25 -65,70 -65,151 0,69 27,113 52,139 28,27 72,51 133,51 49,0 89,-13 117,-33 22,-15 49,-42 61,-87l-101 -9zm-150 -102c0,-22 8,-43 20,-56 13,-14 33,-23 55,-23 28,0 45,14 55,27 10,15 15,35 14,52l-144 0z"/>
  <path id="8" class="fil0" d="M3512 617l0 -165c22,36 55,54 99,54 72,0 143,-56 143,-195 0,-109 -48,-187 -138,-187 -46,0 -90,23 -112,66l0 -59 -99 0 0 486 107 0zm0 -345c0,-44 24,-76 63,-76 41,0 67,34 67,117 0,62 -14,121 -67,121 -39,0 -63,-31 -63,-82l0 -80z"/>
  <path id="9" class="fil0" d="M3803 314c0,59 23,112 58,145 25,24 66,47 124,47 59,0 100,-23 125,-47 35,-33 58,-86 58,-145 0,-77 -38,-122 -55,-140 -43,-41 -92,-50 -128,-50 -36,0 -85,9 -127,50 -17,18 -55,63 -55,140zm182 120c-19,0 -39,-7 -53,-31 -8,-15 -16,-39 -16,-89 0,-27 1,-63 18,-89 13,-20 28,-29 51,-29 24,0 39,9 52,29 17,26 18,62 18,89 0,50 -8,74 -16,89 -14,24 -34,31 -54,31z"/>
  <path id="10" class="fil0" d="M4361 131l-108 0 0 368 108 0 0 -368zm55 -130l-83 0 0 83 83 0 0 -83zm-134 0l-83 0 0 83 83 0 0 -83z"/>
  <path id="11" class="fil0" d="M4468 131l0 368 221 0c26,0 59,-3 86,-23 23,-18 39,-47 39,-81 0,-36 -19,-56 -26,-64 -17,-16 -42,-25 -65,-26l0 -2c37,-6 72,-33 72,-83 0,-36 -18,-58 -36,-70 -23,-16 -55,-19 -82,-19l-209 0zm108 61l57 0c12,0 27,0 39,10 10,7 15,18 15,31 0,15 -5,26 -13,34 -13,12 -29,13 -43,13l-55 0 0 -88zm0 149l67 0c18,0 32,5 41,11 10,8 18,22 18,37 0,12 -5,27 -14,35 -7,7 -21,13 -44,13l-68 0 0 -96z"/>
  <polygon id="12" class="fil0" points="5226,4 5068,4 5068,499 5159,499 5159,114 5161,114 5283,499 5358,499 5478,114 5479,114 5479,499 5590,499 5590,4 5433,4 5331,320 5329,320 "/>
  <path id="13" class="fil0" d="M5777 244c5,-20 17,-31 26,-37 16,-10 34,-11 49,-11 10,0 38,1 52,17 10,11 10,33 10,43l0 8 -34 1c-30,2 -95,7 -136,24 -62,26 -78,70 -78,107 0,33 14,63 37,82 24,19 59,28 92,28 77,0 110,-41 124,-66 0,25 3,44 5,59l105 0c-7,-23 -11,-50 -11,-80l0 -142c0,-27 2,-59 -13,-88 -27,-57 -88,-65 -149,-65 -48,0 -86,6 -115,23 -19,12 -51,37 -63,86l99 11zm137 78l0 20c0,41 -17,63 -19,65 -14,17 -40,27 -61,27 -15,0 -30,-4 -40,-12 -8,-6 -16,-16 -16,-32 0,-15 6,-26 12,-33 20,-26 56,-29 92,-32l32 -3z"/>
  <path id="14" class="fil0" d="M6110 131l0 368 108 0 0 -31 99 -150c12,-18 16,-23 21,-35 -1,12 -3,27 -3,38l0 178 107 0 0 -368 -107 0 0 28 -100 150c-6,9 -12,18 -20,33 1,-8 3,-21 3,-39l0 -172 -108 0zm46 -131c2,66 62,95 120,95 58,0 118,-29 120,-95l-82 0c0,11 -3,42 -38,42 -35,0 -38,-31 -38,-42l-82 0z"/>
  <path id="15" class="fil0" d="M6584 131l-1 27c-1,52 -1,91 -7,133 -4,33 -16,87 -41,132l-33 0 0 173 98 0 0 -97 188 0 0 97 97 0 0 -173 -41 0 0 -292 -260 0zm78 76l74 0 0 216 -110 0c20,-51 20,-52 27,-94 3,-17 9,-60 9,-109l0 -13z"/>
  <path id="16" class="fil0" d="M7049 244c4,-20 17,-31 26,-37 15,-10 33,-11 48,-11 11,0 39,1 52,17 10,11 11,33 11,43l0 8 -35 1c-29,2 -95,7 -135,24 -63,26 -79,70 -79,107 0,33 15,63 38,82 24,19 58,28 92,28 77,0 110,-41 123,-66 1,25 3,44 6,59l105 0c-7,-23 -11,-50 -11,-80l0 -142c0,-27 1,-59 -13,-88 -28,-57 -89,-65 -149,-65 -48,0 -86,6 -115,23 -19,12 -52,37 -63,86l99 11zm137 78l0 20c0,41 -17,63 -19,65 -15,17 -40,27 -62,27 -14,0 -29,-4 -39,-12 -8,-6 -16,-16 -16,-32 0,-15 6,-26 11,-33 21,-26 57,-29 93,-32l32 -3z"/>
  <polygon id="17" class="fil0" points="7382,131 7382,499 7489,499 7489,344 7605,344 7605,499 7713,499 7713,131 7605,131 7605,269 7489,269 7489,131 "/>
  <path id="18" class="fil0" d="M8109 131l-83 0 -78 230 -75 -230 -118 0 135 363 -2 9c-3,11 -11,27 -20,35 -12,8 -29,9 -41,9 -16,0 -36,-2 -54,-5l0 79c20,4 44,6 61,6 34,0 59,-5 85,-27 26,-22 38,-49 47,-74l143 -395z"/>
  <path id="19" class="fil0" d="M1895 917l-107 0 0 368 107 0 0 -368zm1 -131l-110 0 0 84 110 0 0 -84z"/>
  <polygon id="20" class="fil0" points="2160,790 2160,1285 2679,1285 2679,1389 2784,1389 2784,1194 2736,1194 2736,790 2624,790 2624,1194 2504,1194 2504,790 2392,790 2392,1194 2272,1194 2272,790 "/>
  <path id="21" class="fil0" d="M3089 1163c-3,14 -9,27 -18,36 -10,10 -27,21 -54,21 -35,0 -55,-18 -66,-39 -8,-16 -13,-38 -12,-58l254 0 0 -19c0,-62 -20,-106 -42,-133 -25,-29 -69,-61 -138,-61 -33,0 -79,5 -121,41 -29,25 -65,70 -65,151 0,69 27,114 52,139 28,27 72,51 133,51 49,0 89,-13 117,-33 22,-15 49,-42 61,-87l-101 -9zm-150 -102c0,-22 8,-43 20,-56 13,-14 33,-23 55,-23 28,0 45,14 55,28 10,14 15,34 14,51l-144 0z"/>
  <path id="22" class="fil0" d="M3370 1403l0 -165c22,36 55,54 99,54 72,0 143,-56 143,-195 0,-108 -48,-187 -138,-187 -46,0 -90,23 -112,66l0 -59 -99 0 0 486 107 0zm0 -345c0,-43 24,-76 63,-76 41,0 67,34 67,118 0,62 -14,120 -67,120 -39,0 -63,-31 -63,-82l0 -80z"/>
  <path id="23" class="fil0" d="M4016 783c-55,14 -97,19 -151,27 -47,7 -94,16 -133,54 -52,51 -66,138 -66,202 0,93 31,144 51,168 37,45 82,58 137,58 52,0 105,-9 146,-58 19,-24 42,-65 42,-127 0,-74 -34,-117 -64,-139 -34,-25 -72,-30 -101,-30 -62,0 -108,22 -137,71l-1 0c7,-60 36,-84 54,-94 20,-11 44,-16 70,-20 47,-8 4,0 69,-11 33,-6 57,-12 84,-22l0 -79zm-161 222c22,0 39,8 52,23 19,23 22,55 22,82 0,25 -2,62 -24,88 -14,16 -33,22 -51,22 -17,0 -34,-7 -47,-19 -28,-26 -28,-67 -28,-90 0,-22 2,-61 26,-85 10,-11 26,-21 50,-21z"/>
  <path id="24" class="fil0" d="M4202 1030c5,-20 17,-31 26,-37 15,-9 33,-11 49,-11 10,0 38,1 51,17 11,11 11,33 11,43l0 8 -34 1c-30,2 -95,7 -136,24 -63,26 -78,70 -78,107 0,33 14,63 37,82 24,19 58,28 92,28 77,0 110,-41 124,-66 0,25 2,44 5,59l105 0c-7,-23 -11,-50 -11,-80l0 -141c0,-28 1,-60 -13,-89 -27,-57 -89,-65 -149,-65 -48,0 -86,7 -115,23 -19,12 -52,37 -63,87l99 10zm137 78l0 20c0,41 -17,63 -19,65 -15,17 -40,27 -62,27 -14,0 -29,-4 -39,-12 -8,-5 -16,-16 -16,-32 0,-15 6,-26 12,-33 20,-25 56,-29 92,-32l32 -3z"/>
  <polygon id="25" class="fil0" points="4535,917 4535,1285 4643,1285 4643,1131 4759,1131 4759,1285 4866,1285 4866,917 4759,917 4759,1055 4643,1055 4643,917 "/>
  <path id="26" class="fil0" d="M4957 917l0 368 107 0 0 -154 43 0c6,48 28,88 56,114 25,24 67,47 126,47 66,0 107,-30 124,-47 35,-33 58,-86 58,-145 0,-77 -37,-122 -55,-140 -42,-41 -91,-50 -127,-50 -36,0 -85,9 -128,50 -11,12 -39,44 -50,96l-47 0 0 -139 -107 0zm332 303c-20,0 -40,-7 -53,-31 -9,-15 -17,-39 -17,-89 0,-27 1,-62 19,-89 12,-20 28,-29 51,-29 23,0 39,9 51,29 17,27 19,62 19,89 0,50 -8,74 -17,89 -13,24 -34,31 -53,31z"/>
  <path id="27" class="fil0" d="M5540 917l0 368 108 0 0 -154 32 0c23,0 37,5 48,33l5 13c6,16 8,26 18,54 13,38 24,49 39,54l101 0c-12,-15 -16,-25 -23,-42 -10,-22 -14,-33 -24,-61 -10,-28 -17,-46 -26,-60 -15,-22 -36,-33 -55,-35l0 -2c37,-3 51,-26 60,-49 6,-16 17,-55 29,-79 6,-13 16,-28 28,-40l-89 0c-9,2 -24,7 -35,27 -13,25 -12,50 -28,83 -8,16 -20,31 -51,31l-29 0 0 -141 -108 0z"/>
  <path id="28" class="fil0" d="M6038 1030c5,-20 17,-31 26,-37 15,-9 33,-11 49,-11 10,0 38,1 51,17 10,11 11,33 11,43l0 8 -34 1c-30,2 -95,7 -136,24 -63,26 -78,70 -78,107 0,33 14,63 37,82 24,19 58,28 92,28 77,0 110,-41 124,-66 0,25 2,44 5,59l105 0c-7,-23 -11,-50 -11,-80l0 -141c0,-28 1,-60 -13,-89 -27,-57 -89,-65 -149,-65 -48,0 -86,7 -115,23 -19,12 -52,37 -63,87l99 10zm137 78l0 20c0,41 -17,63 -19,65 -15,17 -40,27 -62,27 -14,0 -29,-4 -39,-12 -8,-5 -16,-16 -16,-32 0,-15 6,-26 12,-33 20,-25 56,-29 92,-32l32 -3z"/>
 </g>
</svg>
