<?xml version="1.0" encoding="UTF-8"?>
<!DOCTYPE svg PUBLIC "-//W3C//DTD SVG 1.1//EN" "http://www.w3.org/Graphics/SVG/1.1/DTD/svg11.dtd">
<!-- Creator: CorelDRAW X7 -->
<svg xmlns="http://www.w3.org/2000/svg" xml:space="preserve" width="8.5441mm" height="0.7398mm" version="1.1" style="shape-rendering:geometricPrecision; text-rendering:geometricPrecision; image-rendering:optimizeQuality; fill-rule:evenodd; clip-rule:evenodd"
viewBox="0 0 6465 560"
 xmlns:xlink="http://www.w3.org/1999/xlink">
 <defs>
  <style type="text/css">
   <![CDATA[
    .fil0 {fill:#2B2A29;fill-rule:nonzero}
   ]]>
  </style>
 </defs>
 <g id="Layer_x0020_1">
  <metadata id="CorelCorpID_0Corel-Layer"/>
  <polygon class="fil0" points="0,119 0,446 93,446 93,309 193,309 193,446 286,446 286,119 193,119 193,241 93,241 93,119 "/>
  <path id="1" class="fil0" d="M444 220c4,-18 14,-28 22,-34 13,-8 29,-9 42,-9 9,0 33,0 45,15 9,10 9,29 9,38l0 7 -30 1c-25,2 -82,7 -117,21 -54,23 -68,62 -68,95 0,30 13,56 33,73 20,17 50,25 80,25 66,0 94,-36 106,-58 1,22 3,39 5,52l90 0c-5,-20 -9,-44 -9,-71l0 -126c0,-24 1,-52 -11,-79 -24,-50 -77,-57 -129,-57 -41,0 -74,5 -99,20 -17,10 -45,33 -55,77l86 10zm118 69l0 17c0,37 -15,57 -16,58 -13,16 -35,24 -53,24 -13,0 -26,-3 -35,-10 -7,-5 -13,-15 -13,-29 0,-13 5,-23 10,-29 17,-23 48,-26 79,-29l28 -2z"/>
  <path id="2" class="fil0" d="M877 119l0 327 192 0c21,0 50,-3 74,-21 20,-15 33,-41 33,-71 0,-33 -16,-50 -22,-57 -15,-15 -37,-22 -56,-24l0 -1c32,-6 62,-29 62,-74 0,-31 -15,-51 -31,-62 -20,-14 -48,-17 -71,-17l-181 0zm93 55l50 0c10,0 23,0 34,8 8,6 13,17 13,28 0,13 -5,23 -12,30 -11,10 -25,11 -37,11l-48 0 0 -77zm0 131l58 0c16,0 28,5 36,11 9,7 15,19 15,32 0,11 -4,24 -12,31 -6,7 -18,12 -38,12l-59 0 0 -86z"/>
  <path id="3" class="fil0" d="M1511 119l-71 0 -68 204 -65 -204 -102 0 117 322 -2 9c-3,10 -10,24 -18,30 -10,8 -25,9 -35,9 -14,0 -31,-2 -46,-5l0 71c16,3 37,5 53,5 28,0 50,-5 73,-24 23,-20 33,-43 41,-66l123 -351z"/>
  <path id="4" class="fil0" d="M1593 119l0 24c0,42 -1,57 -3,89 -3,71 -8,100 -18,118 -12,22 -30,27 -41,27 -3,0 -5,0 -8,0l0 69c8,2 16,2 24,2 37,0 66,-19 83,-43 31,-44 32,-125 36,-219l65 0 0 260 93 0 0 -327 -231 0z"/>
  <polygon id="5" class="fil0" points="1901,346 1901,446 2000,446 2000,346 "/>
  <path id="6" class="fil0" d="M2226 6l0 440 100 0 0 -168 72 0c38,0 91,1 133,-53 21,-27 28,-56 28,-85 0,-61 -32,-93 -57,-109 -36,-23 -79,-25 -117,-25l-159 0zm100 195l0 -118 65 0c16,0 37,2 52,16 11,10 16,26 16,43 0,16 -6,32 -17,43 -16,15 -38,16 -53,16l-63 0z"/>
  <path id="7" class="fil0" d="M2876 119l-72 0 -68 204 -64 -204 -102 0 116 322 -1 9c-3,10 -10,24 -18,30 -10,8 -25,9 -35,9 -14,0 -32,-2 -47,-5l0 71c17,3 38,5 53,5 29,0 51,-5 73,-24 23,-20 33,-43 41,-66l124 -351z"/>
  <path id="8" class="fil0" d="M3188 235c-4,-33 -19,-67 -42,-88 -24,-23 -59,-34 -96,-34 -40,0 -76,16 -101,38 -24,23 -50,65 -50,132 0,56 19,102 47,129 16,16 49,40 103,40 48,0 78,-18 96,-34 22,-20 39,-52 43,-89l-83 -9c-1,16 -6,34 -14,47 -11,17 -22,21 -39,21 -15,0 -30,-4 -42,-25 -9,-16 -14,-38 -14,-81 0,-50 8,-70 13,-80 10,-15 25,-25 43,-25 17,0 31,9 40,21 6,10 11,29 12,45l84 -8z"/>
  <path id="9" class="fil0" d="M3243 119l0 327 174 0c30,0 57,-9 75,-24 17,-14 35,-40 35,-81 0,-34 -13,-61 -30,-76 -27,-25 -66,-26 -84,-26l-77 0 0 -120 -93 0zm93 174l44 0c12,0 23,1 35,9 11,9 15,19 15,32 0,18 -7,30 -15,37 -12,10 -27,11 -37,11l-42 0 0 -89z"/>
  <path id="10" class="fil0" d="M3585 119l0 327 93 0 0 -137 28 0c20,0 32,5 41,29l5 12c5,14 7,23 15,48 12,34 21,43 35,48l87 0c-11,-14 -14,-23 -21,-37 -8,-20 -11,-29 -20,-55 -9,-25 -15,-41 -23,-53 -13,-20 -30,-29 -47,-31l0 -2c32,-2 44,-23 52,-43 5,-15 15,-50 25,-71 5,-11 14,-24 24,-35l-77 0c-8,1 -20,6 -30,24 -11,22 -11,45 -24,73 -7,15 -18,29 -45,29l-25 0 0 -126 -93 0z"/>
  <path id="11" class="fil0" d="M4031 119l-93 0 0 327 93 0 0 -327zm1 -116l-95 0 0 74 95 0 0 -74z"/>
  <path id="12" class="fil0" d="M4111 119l0 327 93 0 0 -27 86 -134c10,-15 14,-20 18,-31 -1,11 -3,24 -3,34l0 158 93 0 0 -327 -93 0 0 24 -86 134c-5,8 -10,16 -18,29 1,-7 3,-18 3,-34l0 -153 -93 0zm40 -116c1,59 53,84 103,84 50,0 102,-25 104,-84l-71 0c0,9 -3,37 -33,37 -30,0 -33,-28 -33,-37l-70 0z"/>
  <polygon id="13" class="fil0" points="4574,346 4475,346 4475,446 4518,446 4474,546 4514,546 4574,437 "/>
  <path id="14" class="fil0" d="M4870 163c1,-13 5,-35 14,-51 9,-17 29,-35 59,-35 18,0 34,6 46,17 12,12 18,30 18,47 0,43 -37,81 -65,102l-157 124 0 79 317 0 3 -82 -194 0 122 -96c16,-12 71,-59 71,-130 0,-34 -11,-73 -46,-103 -32,-26 -69,-35 -108,-35 -72,0 -113,35 -133,63 -18,24 -28,54 -32,80l85 20z"/>
  <path id="15" class="fil0" d="M5250 133c9,-31 34,-56 72,-56 20,0 35,6 45,15 13,12 18,26 18,39 0,17 -8,32 -21,41 -15,12 -37,13 -57,13l-40 0 0 69 45 0c40,0 56,10 63,14 13,10 23,27 23,46 0,18 -9,34 -20,44 -13,12 -38,17 -55,17 -45,0 -74,-27 -83,-65l-87 15c23,90 97,127 174,127 46,0 94,-13 124,-36 16,-14 44,-44 44,-95 0,-58 -36,-95 -86,-105 42,-12 72,-50 72,-96 0,-31 -15,-60 -37,-82 -25,-22 -64,-38 -113,-38 -72,0 -140,36 -163,117l82 16z"/>
  <path id="16" class="fil0" d="M5850 6l-274 0 -16 246 76 13c15,-25 40,-38 70,-38 18,0 34,5 49,19 18,17 23,38 23,54 0,19 -7,38 -21,54 -10,11 -26,21 -55,21 -24,0 -44,-7 -60,-25 -8,-9 -14,-20 -17,-34l-85 15c3,17 12,44 38,71 23,24 64,50 127,50 63,0 105,-25 128,-50 23,-25 40,-61 40,-106 0,-48 -20,-86 -47,-111 -20,-19 -52,-35 -97,-35 -42,0 -69,17 -86,33l6 -96 192 0 9 -81z"/>
  <polygon id="17" class="fil0" points="6058,236 5910,236 5910,312 6058,312 "/>
  <path id="18" class="fil0" d="M6118 6l0 440 204 0c33,0 74,-4 106,-33 18,-17 37,-45 37,-90 0,-43 -18,-68 -36,-83 -13,-12 -31,-20 -49,-24l0 -1c18,-6 38,-18 49,-31 14,-16 24,-42 24,-67 0,-37 -15,-66 -35,-83 -33,-27 -77,-28 -104,-28l-196 0zm100 77l71 0c17,0 36,2 49,12 13,9 17,23 17,36 0,14 -4,27 -15,37 -16,14 -34,15 -53,15l-69 0 0 -100zm0 174l78 0c16,0 37,1 53,17 7,7 14,20 14,38 0,22 -9,34 -17,42 -16,14 -33,15 -48,15l-80 0 0 -112z"/>
 </g>
</svg>
