<?xml version="1.0" encoding="UTF-8"?>
<!DOCTYPE svg PUBLIC "-//W3C//DTD SVG 1.1//EN" "http://www.w3.org/Graphics/SVG/1.1/DTD/svg11.dtd">
<!-- Creator: CorelDRAW X7 -->
<svg xmlns="http://www.w3.org/2000/svg" xml:space="preserve" width="9.9143mm" height="2.8617mm" version="1.1" style="shape-rendering:geometricPrecision; text-rendering:geometricPrecision; image-rendering:optimizeQuality; fill-rule:evenodd; clip-rule:evenodd"
viewBox="0 0 12980 3746"
 xmlns:xlink="http://www.w3.org/1999/xlink">
 <defs>
  <style type="text/css">
   <![CDATA[
    .fil0 {fill:#393185;fill-rule:nonzero}
   ]]>
  </style>
 </defs>
 <g id="Layer_x0020_1">
  <metadata id="CorelCorpID_0Corel-Layer"/>
  <path class="fil0" d="M0 229l0 628 174 0 0 -499 188 0 0 499 174 0 0 -628 -536 0zm856 830l0 -282c37,61 90,92 162,92 115,0 231,-96 231,-332 0,-186 -78,-320 -224,-320 -75,0 -145,39 -182,113l0 -101 -161 0 0 830 174 0zm0 -589c0,-75 40,-130 102,-130 67,0 109,58 109,200 0,106 -22,206 -109,206 -63,0 -102,-53 -102,-140l0 -136zm472 72c0,101 38,190 94,247 41,41 107,80 202,80 95,0 161,-39 202,-80 56,-57 94,-146 94,-247 0,-132 -61,-210 -89,-239 -69,-72 -149,-86 -207,-86 -58,0 -138,14 -207,86 -28,29 -89,107 -89,239zm296 204c-32,0 -64,-12 -86,-53 -14,-26 -27,-66 -27,-151 0,-47 2,-107 30,-153 20,-33 46,-49 83,-49 37,0 63,16 83,49 28,46 30,106 30,153 0,85 -13,125 -27,151 -22,41 -55,53 -86,53zm408 -517l0 628 358 0c41,0 95,-5 139,-40 38,-29 63,-78 63,-137 0,-62 -30,-97 -42,-109 -28,-28 -68,-43 -105,-45l0 -3c60,-11 117,-56 117,-143 0,-60 -29,-98 -58,-119 -38,-27 -90,-32 -133,-32l-339 0zm174 105l93 0c20,0 43,0 63,16 16,12 25,32 25,54 0,24 -8,44 -22,58 -21,19 -47,21 -69,21l-90 0 0 -149zm0 253l108 0c31,0 53,9 67,20 18,13 29,37 29,63 0,21 -8,45 -22,59 -12,12 -34,23 -71,23l-111 0 0 -165zm515 79l0 191 186 0 0 -191 -186 0zm797 -654l-187 0 0 845 187 0 0 -845zm155 217l0 628 174 0 0 -264 188 0 0 264 174 0 0 -628 -174 0 0 235 -188 0 0 -235 -174 0zm765 0l-1 46c-2,88 -1,156 -10,227 -7,56 -27,149 -68,226l-53 0 0 295 158 0 0 -166 305 0 0 166 158 0 0 -295 -67 0 0 -499 -422 0zm128 129l120 0 0 370 -179 0c33,-88 33,-89 44,-160 4,-30 15,-103 15,-186l0 -24zm974 -129l-134 0 -128 393 -120 -393 -192 0 219 619 -4 16c-4,20 -17,47 -32,59 -19,15 -47,16 -66,16 -27,0 -59,-3 -87,-8l0 135c31,6 70,10 99,10 54,0 95,-9 137,-46 43,-38 62,-83 77,-126l231 -675zm584 223c-7,-63 -35,-128 -78,-170 -44,-43 -111,-65 -179,-65 -76,0 -144,30 -189,74 -46,43 -95,124 -95,253 0,107 35,196 88,249 30,31 92,76 193,76 89,0 147,-36 180,-65 42,-39 73,-101 81,-171l-156 -17c-1,30 -11,65 -26,89 -21,34 -42,41 -72,41 -28,0 -57,-7 -80,-49 -16,-30 -26,-73 -26,-154 0,-97 14,-135 25,-154 17,-30 47,-49 79,-49 33,0 60,18 75,40 13,20 22,57 24,88l156 -16zm36 -223l0 129 171 0 0 499 174 0 0 -499 170 0 0 -129 -515 0zm769 830l0 -282c36,61 90,92 161,92 116,0 232,-96 232,-332 0,-186 -79,-320 -225,-320 -74,0 -145,39 -181,113l0 -101 -161 0 0 830 174 0zm0 -589c0,-75 40,-130 102,-130 66,0 108,58 108,200 0,106 -22,206 -108,206 -63,0 -102,-53 -102,-140l0 -136zm683 -241l-174 0 0 628 174 0 0 -628zm3 -224l-179 0 0 144 179 0 0 -144zm296 417c6,-34 26,-54 41,-64 25,-16 54,-18 79,-18 17,0 62,1 84,28 16,20 17,57 17,74l0 13 -56 3c-48,2 -154,12 -219,41 -102,44 -128,119 -128,182 0,56 24,108 61,140 39,33 95,48 150,48 124,0 177,-70 200,-112 1,42 4,75 9,100l169 0c-10,-38 -17,-85 -17,-136l0 -242c0,-47 2,-101 -21,-152 -45,-97 -144,-110 -242,-110 -77,0 -139,11 -186,39 -31,20 -84,63 -103,148l162 18zm221 133l0 33c0,72 -28,109 -31,113 -23,29 -64,45 -99,45 -24,0 -48,-6 -65,-20 -12,-9 -25,-28 -25,-55 0,-26 9,-44 18,-57 33,-43 91,-49 150,-54l52 -5zm393 -326l0 47c0,80 -2,109 -5,170 -6,136 -15,193 -34,227 -22,42 -56,51 -78,52 -5,0 -9,0 -14,0l0 132c15,4 29,5 45,5 70,0 125,-37 156,-83 58,-85 60,-240 67,-421l122 0 0 499 174 0 0 -628 -433 0zm581 0l0 628 326 0c56,0 106,-17 140,-46 32,-27 66,-76 66,-155 0,-66 -25,-118 -57,-148 -50,-46 -123,-49 -156,-49l-145 0 0 -230 -174 0zm174 335l81 0c24,0 45,1 66,17 21,16 29,36 29,62 0,34 -14,58 -28,70 -22,19 -51,21 -69,21l-79 0 0 -170zm467 -335l0 628 174 0 0 -264 188 0 0 264 174 0 0 -628 -174 0 0 235 -188 0 0 -235 -174 0zm683 0l0 628 175 0 0 -52 161 -257c18,-30 25,-38 34,-59 -3,19 -5,45 -5,65l0 303 174 0 0 -628 -174 0 0 47 -163 257c-9,15 -18,31 -32,55 2,-13 5,-34 5,-66l0 -293 -175 0zm686 0l0 628 174 0 0 -52 161 -257c19,-30 26,-38 34,-59 -2,19 -4,45 -4,65l0 303 174 0 0 -628 -174 0 0 47 -163 257c-9,15 -18,31 -32,55 2,-13 4,-34 4,-66l0 -293 -174 0zm75 -224c2,113 100,162 194,162 93,0 191,-49 194,-162l-132 0c0,18 -6,73 -62,73 -56,0 -62,-55 -62,-73l-132 0zm793 661l-186 0 0 191 81 0 -83 193 76 0 112 -209 0 -175zm555 -353c1,-25 8,-67 26,-98 17,-32 54,-67 111,-67 34,0 64,12 85,33 23,23 34,58 34,90 0,84 -69,155 -120,197l-295 237 0 152 594 0 6 -158 -364 0 228 -183c30,-25 133,-115 133,-251 0,-64 -20,-139 -86,-197 -60,-51 -130,-68 -202,-68 -136,0 -212,67 -250,122 -33,45 -52,102 -59,154l159 37zm-10247 1043c-37,46 -72,100 -103,166 -52,114 -78,241 -78,359 0,102 22,200 59,296 30,75 68,151 122,226l119 0c-133,-220 -151,-416 -151,-527 0,-115 20,-315 150,-520l-118 0zm206 426c0,364 193,430 310,430 117,0 311,-66 311,-430 0,-115 -21,-232 -71,-308 -43,-66 -124,-131 -240,-131 -115,0 -196,65 -239,131 -50,76 -71,193 -71,308zm175 0c0,-62 1,-199 50,-258 21,-24 48,-38 85,-38 38,0 64,14 86,38 49,59 50,196 50,258 0,163 -34,220 -49,242 -23,31 -52,46 -87,46 -35,0 -64,-15 -86,-46 -15,-22 -49,-79 -49,-242zm1114 -426l-512 0 -31 472 143 24c29,-47 75,-73 130,-73 34,0 66,10 94,37 33,32 42,73 42,105 0,35 -13,72 -39,102 -20,22 -49,42 -103,42 -45,0 -84,-15 -113,-50 -14,-16 -27,-38 -33,-64l-158 29c7,33 23,85 71,135 44,47 120,97 238,97 118,0 196,-49 240,-97 43,-47 76,-116 76,-203 0,-92 -38,-165 -88,-213 -39,-37 -98,-68 -183,-68 -79,0 -129,32 -162,64l13 -184 359 0 16 -155zm136 426c0,364 194,430 310,430 117,0 311,-66 311,-430 0,-115 -21,-232 -71,-308 -43,-66 -124,-131 -240,-131 -115,0 -196,65 -239,131 -50,76 -71,193 -71,308zm175 0c0,-62 1,-199 50,-258 21,-24 48,-38 85,-38 38,0 65,14 86,38 49,59 50,196 50,258 0,163 -34,220 -49,242 -22,31 -52,46 -87,46 -35,0 -64,-15 -86,-46 -15,-22 -49,-79 -49,-242zm534 -426c129,205 149,405 149,520 0,111 -17,307 -150,527l119 0c53,-75 92,-151 121,-226 38,-96 60,-194 60,-296 0,-118 -26,-245 -78,-359 -31,-66 -66,-120 -103,-166l-118 0zm1171 0l-209 0 -323 517 0 136 355 0 0 191 177 0 0 -191 121 0 0 -143 -121 0 0 -510zm-177 510l-209 0 209 -337 0 337zm540 -268c17,-59 63,-107 134,-107 38,0 66,12 85,29 25,23 34,51 34,76 0,32 -15,61 -38,78 -30,23 -71,25 -109,25l-75 0 0 133 85 0c75,0 106,18 117,27 25,18 43,52 43,89 0,34 -15,65 -36,83 -24,23 -72,34 -104,34 -83,0 -138,-53 -155,-126l-162 30c43,172 181,243 325,243 86,0 177,-24 232,-70 31,-26 83,-83 83,-182 0,-111 -68,-182 -161,-202 79,-23 134,-96 134,-183 0,-61 -27,-117 -69,-158 -46,-43 -119,-74 -210,-74 -136,0 -263,69 -307,224l154 31zm689 180c-72,27 -152,92 -152,203 0,60 26,113 78,156 28,24 102,75 239,75 84,0 176,-21 233,-65 59,-45 91,-118 91,-190 0,-135 -112,-195 -154,-214 67,-28 124,-91 124,-182 0,-50 -19,-117 -95,-166 -28,-19 -90,-52 -194,-52 -74,0 -148,19 -199,61 -55,44 -92,119 -92,187 0,86 57,152 121,187l0 0zm196 -88c-84,-22 -147,-69 -147,-125 0,-36 27,-90 114,-90 99,0 135,59 135,107 0,55 -48,87 -102,108zm-68 154c88,29 183,66 183,139 0,43 -34,98 -143,98 -124,0 -154,-72 -154,-115 0,-65 64,-106 114,-122zm698 -48l-278 0 0 148 278 0 0 -148zm592 -440l-209 0 -324 517 0 136 356 0 0 191 177 0 0 -191 120 0 0 -143 -120 0 0 -510zm-177 510l-210 0 210 -337 0 337zm974 -297c-41,-218 -237,-226 -277,-226 -83,0 -154,22 -224,108 -82,101 -106,226 -106,343 0,98 18,197 72,281 66,104 166,137 259,137 88,0 159,-30 209,-76 60,-54 95,-130 95,-213 0,-138 -90,-267 -257,-267 -84,0 -153,39 -195,114 -4,-161 48,-284 150,-284 76,0 108,62 117,108l157 -25zm-282 501c-37,0 -75,-19 -97,-42 -15,-16 -34,-45 -34,-88 0,-28 7,-67 40,-101 24,-23 56,-40 96,-40 41,0 66,18 85,39 22,25 37,55 37,99 0,34 -9,67 -36,94 -32,34 -70,39 -91,39zm650 -274l-278 0 0 148 278 0 0 -148zm592 -440l-209 0 -324 517 0 136 355 0 0 191 178 0 0 -191 120 0 0 -143 -120 0 0 -510zm-178 510l-209 0 209 -337 0 337zm975 -297c-41,-218 -238,-226 -277,-226 -83,0 -154,22 -224,108 -82,101 -106,226 -106,343 0,98 18,197 72,281 66,104 166,137 259,137 88,0 159,-30 209,-76 60,-54 95,-130 95,-213 0,-138 -90,-267 -257,-267 -84,0 -153,39 -195,114 -4,-161 47,-284 150,-284 76,0 108,62 117,108l157 -25zm-282 501c-37,0 -75,-19 -97,-42 -15,-16 -34,-45 -34,-88 0,-28 7,-67 40,-101 23,-23 56,-40 96,-40 41,0 66,18 85,39 22,25 37,55 37,99 0,34 -9,67 -36,94 -32,34 -70,39 -91,39zm-7951 629c-37,46 -73,101 -103,166 -53,114 -78,241 -78,359 0,103 22,200 60,296 29,75 67,151 121,226l119 0c-133,-220 -151,-416 -151,-526 0,-116 20,-316 150,-521l-118 0zm206 426c0,364 193,431 310,431 117,0 311,-67 311,-431 0,-115 -21,-232 -71,-308 -43,-65 -124,-131 -240,-131 -115,0 -196,66 -239,131 -51,76 -71,193 -71,308zm175 0c0,-62 1,-198 50,-258 21,-24 48,-38 85,-38 38,0 64,14 86,38 49,60 50,196 50,258 0,163 -34,220 -49,242 -23,31 -52,46 -87,46 -35,0 -64,-15 -86,-46 -15,-22 -49,-79 -49,-242zm703 -184c18,-59 63,-107 134,-107 39,0 67,12 86,30 24,22 34,50 34,75 0,32 -16,61 -39,79 -29,22 -70,24 -109,24l-74 0 0 133 85 0c75,0 105,19 117,27 24,19 43,52 43,89 0,34 -15,65 -36,84 -25,22 -73,33 -104,33 -83,0 -138,-53 -156,-126l-162 30c43,172 181,244 326,244 85,0 176,-25 231,-71 32,-25 83,-83 83,-182 0,-111 -68,-182 -161,-202 79,-23 134,-96 134,-183 0,-60 -27,-117 -69,-158 -45,-43 -119,-74 -210,-74 -135,0 -263,69 -306,224l153 31zm1146 -242l-557 0 -14 155 396 0c-34,40 -79,99 -115,166 -49,91 -136,284 -150,523l199 0 0 -49c0,-86 10,-146 31,-230 35,-142 85,-277 210,-445l0 -120zm280 300c2,-25 8,-66 26,-97 18,-32 54,-68 111,-68 34,0 64,12 85,33 24,24 34,58 34,90 0,84 -69,155 -120,197l-294 238 0 151 593 0 6 -157 -364 0 228 -184c31,-24 133,-114 133,-251 0,-64 -20,-139 -86,-197 -60,-50 -130,-68 -202,-68 -136,0 -212,67 -250,122 -33,46 -52,102 -58,154l158 37zm542 -300c130,205 150,405 150,521 0,110 -18,306 -151,526l119 0c54,-75 93,-151 122,-226 37,-96 59,-193 59,-296 0,-118 -25,-245 -78,-359 -30,-65 -65,-120 -103,-166l-118 0zm1233 0l-512 0 -32 472 143 24c29,-47 76,-73 131,-73 34,0 65,10 93,37 33,32 42,73 42,105 0,36 -13,72 -38,102 -20,22 -49,42 -103,42 -45,0 -84,-15 -113,-49 -14,-16 -27,-39 -33,-64l-159 28c7,33 24,85 71,135 45,47 121,98 239,98 118,0 196,-50 239,-98 43,-46 76,-115 76,-203 0,-92 -37,-165 -87,-213 -39,-37 -99,-68 -184,-68 -78,0 -128,33 -161,64l13 -184 359 0 16 -155zm278 422c-72,27 -152,92 -152,203 0,60 26,113 78,156 28,24 102,76 239,76 84,0 176,-21 233,-66 59,-45 91,-118 91,-189 0,-136 -112,-196 -154,-214 67,-29 124,-92 124,-183 0,-50 -19,-117 -95,-166 -28,-18 -90,-52 -194,-52 -74,0 -148,19 -199,61 -55,44 -92,119 -92,187 0,86 57,153 121,187l0 0zm196 -87c-84,-23 -147,-69 -147,-126 0,-36 27,-90 114,-90 99,0 135,59 135,107 0,56 -48,88 -102,109zm-68 153c88,29 183,66 183,140 0,43 -34,97 -143,97 -124,0 -154,-72 -154,-115 0,-65 64,-106 114,-122zm854 -488l-134 0c-32,46 -64,74 -104,99 -43,27 -89,50 -133,66l0 156c57,-21 99,-44 194,-110l0 476 -214 0 0 157 593 0 0 -157 -202 0 0 -687zm556 440l-278 0 0 148 278 0 0 -148zm219 -18c-72,27 -152,92 -152,203 0,60 26,113 78,156 28,24 102,76 238,76 85,0 177,-21 234,-66 59,-45 91,-118 91,-189 0,-136 -112,-196 -154,-214 67,-29 124,-92 124,-183 0,-50 -19,-117 -95,-166 -28,-18 -90,-52 -194,-52 -74,0 -148,19 -199,61 -55,44 -92,119 -92,187 0,86 57,153 121,187l0 0zm196 -87c-84,-23 -147,-69 -147,-126 0,-36 27,-90 114,-90 99,0 135,59 135,107 0,56 -48,88 -102,109zm-68 153c88,29 183,66 183,140 0,43 -34,97 -143,97 -124,0 -154,-72 -154,-115 0,-65 64,-106 114,-122zm442 -62c0,364 194,431 311,431 116,0 310,-67 310,-431 0,-115 -21,-232 -71,-308 -43,-65 -124,-131 -239,-131 -116,0 -197,66 -240,131 -50,76 -71,193 -71,308zm175 0c0,-62 1,-198 50,-258 21,-24 48,-38 86,-38 37,0 64,14 85,38 49,60 50,196 50,258 0,163 -34,220 -49,242 -22,31 -51,46 -86,46 -36,0 -65,-15 -87,-46 -15,-22 -49,-79 -49,-242zm950 -426l-135 0c-31,46 -64,74 -104,99 -43,27 -88,50 -133,66l0 156c58,-21 100,-44 194,-110l0 476 -214 0 0 157 594 0 0 -157 -202 0 0 -687z"/>
 </g>
</svg>
